<svg width="24" height="24" viewBox="0 0 24 24" fill="none" xmlns="http://www.w3.org/2000/svg">
<path d="M18.4381 9.75916C19.1877 9.00964 19.7873 8.55993 20.237 8.11022C22.6354 5.71176 25.0339 1.96417 23.5349 0.465131C22.0358 -1.03391 18.4381 1.36455 16.0397 3.76301C15.59 4.21272 15.1403 4.81234 14.3907 5.56185L3.89749 0.764938C2.84817 0.315227 1.64894 0.465131 0.899422 1.21465L0 1.96417L9.89364 10.5087C7.94489 12.9071 5.84624 15.1557 4.79692 16.5048L3.14798 15.6054C2.39846 15.1557 1.34913 15.1557 0.749518 15.9052L0.299807 16.3549L4.49711 19.5029L7.49518 23.7002L7.94489 23.2505C8.54451 22.6509 8.69441 21.6015 8.2447 20.852L7.49518 19.2031C8.84431 18.1538 11.0929 16.0551 13.4913 14.1064L22.0358 24L22.7854 23.2505C23.5349 22.501 23.6848 21.3017 23.2351 20.2524L18.4381 9.75916Z" fill="#333333"/>
</svg>
