<svg width="32" height="32" viewBox="0 0 32 32" fill="none" xmlns="http://www.w3.org/2000/svg">
<circle cx="16" cy="16" r="16" fill="#333333"/>
<path d="M13.8462 10H9.23077C8.90435 10 8.5913 10.1331 8.36048 10.37C8.12967 10.6069 8 10.9281 8 11.2632V16.3158C8 16.6508 8.12967 16.9721 8.36048 17.209C8.5913 17.4459 8.90435 17.5789 9.23077 17.5789H13.8462V18.2105C13.8462 18.8805 13.5868 19.5231 13.1252 19.9969C12.6636 20.4707 12.0375 20.7368 11.3846 20.7368C11.2214 20.7368 11.0649 20.8034 10.9495 20.9218C10.8341 21.0403 10.7692 21.2009 10.7692 21.3684C10.7692 21.5359 10.8341 21.6966 10.9495 21.815C11.0649 21.9335 11.2214 22 11.3846 22C12.3636 21.999 13.3021 21.5994 13.9943 20.8889C14.6866 20.1785 15.0759 19.2152 15.0769 18.2105V11.2632C15.0769 10.9281 14.9473 10.6069 14.7164 10.37C14.4856 10.1331 14.1726 10 13.8462 10ZM13.8462 16.3158H9.23077V11.2632H13.8462V16.3158ZM22.7692 10H18.1538C17.8274 10 17.5144 10.1331 17.2836 10.37C17.0527 10.6069 16.9231 10.9281 16.9231 11.2632V16.3158C16.9231 16.6508 17.0527 16.9721 17.2836 17.209C17.5144 17.4459 17.8274 17.5789 18.1538 17.5789H22.7692V18.2105C22.7692 18.8805 22.5099 19.5231 22.0483 19.9969C21.5866 20.4707 20.9605 20.7368 20.3077 20.7368C20.1445 20.7368 19.988 20.8034 19.8726 20.9218C19.7571 21.0403 19.6923 21.2009 19.6923 21.3684C19.6923 21.5359 19.7571 21.6966 19.8726 21.815C19.988 21.9335 20.1445 22 20.3077 22C21.2866 21.999 22.2252 21.5994 22.9174 20.8889C23.6096 20.1785 23.999 19.2152 24 18.2105V11.2632C24 10.9281 23.8703 10.6069 23.6395 10.37C23.4087 10.1331 23.0957 10 22.7692 10ZM22.7692 16.3158H18.1538V11.2632H22.7692V16.3158Z" fill="white"/>
</svg>
