<svg width="40" height="40" viewBox="0 0 40 40" fill="none" xmlns="http://www.w3.org/2000/svg">
<path d="M36.6667 0H3.33333C2.44928 0 1.60143 0.351189 0.976311 0.976311C0.351189 1.60143 0 2.44928 0 3.33333V36.6667C0 37.5507 0.351189 38.3986 0.976311 39.0237C1.60143 39.6488 2.44928 40 3.33333 40H36.6667C37.5507 40 38.3986 39.6488 39.0237 39.0237C39.6488 38.3986 40 37.5507 40 36.6667V3.33333C40 2.44928 39.6488 1.60143 39.0237 0.976311C38.3986 0.351189 37.5507 0 36.6667 0ZM36.6667 36.6667H3.33333V3.33333H36.6667V36.6667ZM10.4875 21.1792C10.3325 21.0244 10.2096 20.8406 10.1257 20.6382C10.0419 20.4359 9.99869 20.219 9.99869 20C9.99869 19.781 10.0419 19.5641 10.1257 19.3618C10.2096 19.1594 10.3325 18.9756 10.4875 18.8208L17.1542 12.1542C17.4669 11.8414 17.8911 11.6657 18.3333 11.6657C18.7756 11.6657 19.1998 11.8414 19.5125 12.1542C19.8252 12.4669 20.0009 12.8911 20.0009 13.3333C20.0009 13.7756 19.8252 14.1998 19.5125 14.5125L15.6896 18.3333H28.3333C28.7754 18.3333 29.1993 18.5089 29.5118 18.8215C29.8244 19.134 30 19.558 30 20C30 20.442 29.8244 20.866 29.5118 21.1785C29.1993 21.4911 28.7754 21.6667 28.3333 21.6667H15.6896L19.5125 25.4875C19.6674 25.6423 19.7902 25.8262 19.874 26.0285C19.9578 26.2308 20.0009 26.4477 20.0009 26.6667C20.0009 26.8857 19.9578 27.1025 19.874 27.3048C19.7902 27.5071 19.6674 27.691 19.5125 27.8458C19.3577 28.0007 19.1738 28.1235 18.9715 28.2073C18.7692 28.2911 18.5523 28.3343 18.3333 28.3343C18.1143 28.3343 17.8975 28.2911 17.6952 28.2073C17.4929 28.1235 17.309 28.0007 17.1542 27.8458L10.4875 21.1792Z" fill="#999999"/>
</svg>
