<svg width="1014" height="288" viewBox="0 0 1014 288" fill="none" xmlns="http://www.w3.org/2000/svg">
<path d="M458.891 82H457.562V70.5781H463.922V71.75H458.891V75.9375H463.617V77.1016H458.891V82ZM469.523 73.2812C469.695 73.2812 469.875 73.2917 470.062 73.3125C470.25 73.3281 470.417 73.3516 470.562 73.3828L470.398 74.5859C470.258 74.5495 470.102 74.5208 469.93 74.5C469.758 74.4792 469.596 74.4688 469.445 74.4688C469.102 74.4688 468.776 74.5391 468.469 74.6797C468.167 74.8151 467.901 75.013 467.672 75.2734C467.443 75.5286 467.263 75.8385 467.133 76.2031C467.003 76.5625 466.938 76.9635 466.938 77.4062V82H465.633V73.4375H466.711L466.852 75.0156H466.906C467.083 74.6979 467.297 74.4089 467.547 74.1484C467.797 73.8828 468.086 73.6719 468.414 73.5156C468.747 73.3594 469.117 73.2812 469.523 73.2812ZM479.562 77.7031C479.562 78.4062 479.471 79.0339 479.289 79.5859C479.107 80.138 478.844 80.6042 478.5 80.9844C478.156 81.3646 477.74 81.6562 477.25 81.8594C476.766 82.0573 476.216 82.1562 475.602 82.1562C475.029 82.1562 474.503 82.0573 474.023 81.8594C473.549 81.6562 473.138 81.3646 472.789 80.9844C472.445 80.6042 472.177 80.138 471.984 79.5859C471.797 79.0339 471.703 78.4062 471.703 77.7031C471.703 76.7656 471.862 75.9688 472.18 75.3125C472.497 74.651 472.951 74.1484 473.539 73.8047C474.133 73.4557 474.839 73.2812 475.656 73.2812C476.438 73.2812 477.12 73.4557 477.703 73.8047C478.292 74.1536 478.747 74.6589 479.07 75.3203C479.398 75.9766 479.562 76.7708 479.562 77.7031ZM473.047 77.7031C473.047 78.3906 473.138 78.987 473.32 79.4922C473.503 79.9974 473.784 80.388 474.164 80.6641C474.544 80.9401 475.034 81.0781 475.633 81.0781C476.227 81.0781 476.714 80.9401 477.094 80.6641C477.479 80.388 477.763 79.9974 477.945 79.4922C478.128 78.987 478.219 78.3906 478.219 77.7031C478.219 77.0208 478.128 76.4323 477.945 75.9375C477.763 75.4375 477.482 75.0521 477.102 74.7812C476.721 74.5104 476.229 74.375 475.625 74.375C474.734 74.375 474.081 74.6693 473.664 75.2578C473.253 75.8464 473.047 76.6615 473.047 77.7031ZM491.102 73.2812C492.044 73.2812 492.755 73.5286 493.234 74.0234C493.714 74.513 493.953 75.3021 493.953 76.3906V82H492.672V76.4531C492.672 75.7604 492.521 75.2422 492.219 74.8984C491.922 74.5495 491.479 74.375 490.891 74.375C490.062 74.375 489.461 74.6146 489.086 75.0938C488.711 75.5729 488.523 76.2786 488.523 77.2109V82H487.234V76.4531C487.234 75.9896 487.167 75.6042 487.031 75.2969C486.901 74.9896 486.703 74.7604 486.438 74.6094C486.177 74.4531 485.846 74.375 485.445 74.375C484.878 74.375 484.422 74.4922 484.078 74.7266C483.734 74.9609 483.484 75.3099 483.328 75.7734C483.177 76.2318 483.102 76.7969 483.102 77.4688V82H481.805V73.4375H482.852L483.047 74.6484H483.117C483.289 74.3516 483.505 74.1016 483.766 73.8984C484.026 73.6953 484.318 73.5417 484.641 73.4375C484.964 73.3333 485.307 73.2812 485.672 73.2812C486.323 73.2812 486.867 73.4036 487.305 73.6484C487.747 73.888 488.068 74.2552 488.266 74.75H488.336C488.617 74.2552 489.003 73.888 489.492 73.6484C489.982 73.4036 490.518 73.2812 491.102 73.2812ZM505.852 71.5859C505.221 71.5859 504.654 71.6953 504.148 71.9141C503.648 72.1276 503.221 72.4401 502.867 72.8516C502.518 73.2578 502.25 73.75 502.062 74.3281C501.875 74.9062 501.781 75.5573 501.781 76.2812C501.781 77.2396 501.93 78.0729 502.227 78.7812C502.529 79.4844 502.977 80.0286 503.57 80.4141C504.169 80.7995 504.917 80.9922 505.812 80.9922C506.323 80.9922 506.802 80.9505 507.25 80.8672C507.703 80.7786 508.143 80.6693 508.57 80.5391V81.6953C508.154 81.8516 507.716 81.9661 507.258 82.0391C506.799 82.1172 506.255 82.1562 505.625 82.1562C504.464 82.1562 503.492 81.9167 502.711 81.4375C501.935 80.9531 501.352 80.2708 500.961 79.3906C500.576 78.5104 500.383 77.4714 500.383 76.2734C500.383 75.4089 500.503 74.6198 500.742 73.9062C500.987 73.1875 501.341 72.5677 501.805 72.0469C502.273 71.526 502.846 71.125 503.523 70.8438C504.206 70.5573 504.987 70.4141 505.867 70.4141C506.445 70.4141 507.003 70.4714 507.539 70.5859C508.076 70.7005 508.56 70.8646 508.992 71.0781L508.461 72.2031C508.096 72.0365 507.695 71.8932 507.258 71.7734C506.826 71.6484 506.357 71.5859 505.852 71.5859ZM518.234 77.7031C518.234 78.4062 518.143 79.0339 517.961 79.5859C517.779 80.138 517.516 80.6042 517.172 80.9844C516.828 81.3646 516.411 81.6562 515.922 81.8594C515.438 82.0573 514.888 82.1562 514.273 82.1562C513.701 82.1562 513.174 82.0573 512.695 81.8594C512.221 81.6562 511.81 81.3646 511.461 80.9844C511.117 80.6042 510.849 80.138 510.656 79.5859C510.469 79.0339 510.375 78.4062 510.375 77.7031C510.375 76.7656 510.534 75.9688 510.852 75.3125C511.169 74.651 511.622 74.1484 512.211 73.8047C512.805 73.4557 513.51 73.2812 514.328 73.2812C515.109 73.2812 515.792 73.4557 516.375 73.8047C516.964 74.1536 517.419 74.6589 517.742 75.3203C518.07 75.9766 518.234 76.7708 518.234 77.7031ZM511.719 77.7031C511.719 78.3906 511.81 78.987 511.992 79.4922C512.174 79.9974 512.456 80.388 512.836 80.6641C513.216 80.9401 513.706 81.0781 514.305 81.0781C514.898 81.0781 515.385 80.9401 515.766 80.6641C516.151 80.388 516.435 79.9974 516.617 79.4922C516.799 78.987 516.891 78.3906 516.891 77.7031C516.891 77.0208 516.799 76.4323 516.617 75.9375C516.435 75.4375 516.154 75.0521 515.773 74.7812C515.393 74.5104 514.901 74.375 514.297 74.375C513.406 74.375 512.753 74.6693 512.336 75.2578C511.924 75.8464 511.719 76.6615 511.719 77.7031ZM523.906 82.1562C523.135 82.1562 522.456 81.9974 521.867 81.6797C521.279 81.362 520.82 80.8776 520.492 80.2266C520.164 79.5755 520 78.7552 520 77.7656C520 76.7292 520.172 75.8828 520.516 75.2266C520.865 74.5651 521.344 74.0755 521.953 73.7578C522.562 73.4401 523.255 73.2812 524.031 73.2812C524.458 73.2812 524.87 73.3255 525.266 73.4141C525.667 73.4974 525.995 73.6042 526.25 73.7344L525.859 74.8203C525.599 74.7161 525.297 74.6224 524.953 74.5391C524.615 74.4557 524.297 74.4141 524 74.4141C523.406 74.4141 522.911 74.5417 522.516 74.7969C522.125 75.0521 521.831 75.4271 521.633 75.9219C521.44 76.4167 521.344 77.026 521.344 77.75C521.344 78.4427 521.438 79.0339 521.625 79.5234C521.818 80.013 522.102 80.388 522.477 80.6484C522.857 80.9036 523.331 81.0312 523.898 81.0312C524.352 81.0312 524.76 80.9844 525.125 80.8906C525.49 80.7917 525.82 80.6771 526.117 80.5469V81.7031C525.831 81.849 525.51 81.9609 525.156 82.0391C524.807 82.1172 524.391 82.1562 523.906 82.1562ZM529.445 69.8438V73.4766C529.445 73.6849 529.44 73.8958 529.43 74.1094C529.419 74.3177 529.401 74.5104 529.375 74.6875H529.461C529.638 74.3854 529.862 74.1328 530.133 73.9297C530.409 73.7214 530.721 73.5651 531.07 73.4609C531.419 73.3516 531.789 73.2969 532.18 73.2969C532.867 73.2969 533.44 73.4062 533.898 73.625C534.362 73.8438 534.708 74.1823 534.938 74.6406C535.172 75.099 535.289 75.6927 535.289 76.4219V82H534.008V76.5078C534.008 75.7943 533.844 75.2604 533.516 74.9062C533.193 74.5521 532.695 74.375 532.023 74.375C531.388 74.375 530.88 74.4974 530.5 74.7422C530.125 74.9818 529.854 75.3359 529.688 75.8047C529.526 76.2734 529.445 76.8464 529.445 77.5234V82H528.148V69.8438H529.445ZM539.258 73.4375V82H537.961V73.4375H539.258ZM538.625 70.2344C538.839 70.2344 539.021 70.3047 539.172 70.4453C539.328 70.5807 539.406 70.7943 539.406 71.0859C539.406 71.3724 539.328 71.5859 539.172 71.7266C539.021 71.8672 538.839 71.9375 538.625 71.9375C538.401 71.9375 538.214 71.8672 538.062 71.7266C537.917 71.5859 537.844 71.3724 537.844 71.0859C537.844 70.7943 537.917 70.5807 538.062 70.4453C538.214 70.3047 538.401 70.2344 538.625 70.2344ZM546.062 73.2812C547.078 73.2812 547.846 73.5312 548.367 74.0312C548.888 74.526 549.148 75.3229 549.148 76.4219V82H547.867V76.5078C547.867 75.7943 547.703 75.2604 547.375 74.9062C547.052 74.5521 546.555 74.375 545.883 74.375C544.935 74.375 544.268 74.6432 543.883 75.1797C543.497 75.7161 543.305 76.4948 543.305 77.5156V82H542.008V73.4375H543.055L543.25 74.6719H543.32C543.503 74.3698 543.734 74.1172 544.016 73.9141C544.297 73.7057 544.612 73.5495 544.961 73.4453C545.31 73.3359 545.677 73.2812 546.062 73.2812ZM556.172 82V70.5781H557.5V82H556.172ZM564.5 73.2812C565.516 73.2812 566.284 73.5312 566.805 74.0312C567.326 74.526 567.586 75.3229 567.586 76.4219V82H566.305V76.5078C566.305 75.7943 566.141 75.2604 565.812 74.9062C565.49 74.5521 564.992 74.375 564.32 74.375C563.372 74.375 562.706 74.6432 562.32 75.1797C561.935 75.7161 561.742 76.4948 561.742 77.5156V82H560.445V73.4375H561.492L561.688 74.6719H561.758C561.94 74.3698 562.172 74.1172 562.453 73.9141C562.734 73.7057 563.049 73.5495 563.398 73.4453C563.747 73.3359 564.115 73.2812 564.5 73.2812ZM573.023 81.0938C573.237 81.0938 573.456 81.0755 573.68 81.0391C573.904 81.0026 574.086 80.9583 574.227 80.9062V81.9141C574.076 81.9818 573.865 82.0391 573.594 82.0859C573.328 82.1328 573.068 82.1562 572.812 82.1562C572.359 82.1562 571.948 82.0781 571.578 81.9219C571.208 81.7604 570.911 81.4896 570.688 81.1094C570.469 80.7292 570.359 80.2031 570.359 79.5312V74.4531H569.141V73.8203L570.367 73.3125L570.883 71.4531H571.664V73.4375H574.172V74.4531H571.664V79.4922C571.664 80.0286 571.786 80.4297 572.031 80.6953C572.281 80.9609 572.612 81.0938 573.023 81.0938ZM579.258 73.2812C579.987 73.2812 580.612 73.4427 581.133 73.7656C581.654 74.0885 582.052 74.5417 582.328 75.125C582.604 75.7031 582.742 76.3802 582.742 77.1562V77.9609H576.828C576.844 78.9661 577.094 79.7318 577.578 80.2578C578.062 80.7839 578.745 81.0469 579.625 81.0469C580.167 81.0469 580.646 80.9974 581.062 80.8984C581.479 80.7995 581.911 80.6536 582.359 80.4609V81.6016C581.927 81.7943 581.497 81.9349 581.07 82.0234C580.648 82.112 580.148 82.1562 579.57 82.1562C578.747 82.1562 578.029 81.9896 577.414 81.6562C576.805 81.3177 576.331 80.8229 575.992 80.1719C575.654 79.5208 575.484 78.724 575.484 77.7812C575.484 76.8594 575.638 76.0625 575.945 75.3906C576.258 74.7135 576.695 74.1927 577.258 73.8281C577.826 73.4635 578.492 73.2812 579.258 73.2812ZM579.242 74.3438C578.549 74.3438 577.997 74.5703 577.586 75.0234C577.174 75.4766 576.93 76.1094 576.852 76.9219H581.383C581.378 76.4115 581.297 75.9635 581.141 75.5781C580.99 75.1875 580.758 74.8854 580.445 74.6719C580.133 74.4531 579.732 74.3438 579.242 74.3438ZM588.836 73.2812C589.008 73.2812 589.188 73.2917 589.375 73.3125C589.562 73.3281 589.729 73.3516 589.875 73.3828L589.711 74.5859C589.57 74.5495 589.414 74.5208 589.242 74.5C589.07 74.4792 588.909 74.4688 588.758 74.4688C588.414 74.4688 588.089 74.5391 587.781 74.6797C587.479 74.8151 587.214 75.013 586.984 75.2734C586.755 75.5286 586.576 75.8385 586.445 76.2031C586.315 76.5625 586.25 76.9635 586.25 77.4062V82H584.945V73.4375H586.023L586.164 75.0156H586.219C586.396 74.6979 586.609 74.4089 586.859 74.1484C587.109 73.8828 587.398 73.6719 587.727 73.5156C588.06 73.3594 588.43 73.2812 588.836 73.2812ZM595.547 73.2812C596.562 73.2812 597.331 73.5312 597.852 74.0312C598.372 74.526 598.633 75.3229 598.633 76.4219V82H597.352V76.5078C597.352 75.7943 597.188 75.2604 596.859 74.9062C596.536 74.5521 596.039 74.375 595.367 74.375C594.419 74.375 593.753 74.6432 593.367 75.1797C592.982 75.7161 592.789 76.4948 592.789 77.5156V82H591.492V73.4375H592.539L592.734 74.6719H592.805C592.987 74.3698 593.219 74.1172 593.5 73.9141C593.781 73.7057 594.096 73.5495 594.445 73.4453C594.794 73.3359 595.161 73.2812 595.547 73.2812ZM604.508 73.2969C605.529 73.2969 606.286 73.526 606.781 73.9844C607.276 74.4427 607.523 75.1745 607.523 76.1797V82H606.578L606.328 80.7344H606.266C606.026 81.0469 605.776 81.3099 605.516 81.5234C605.255 81.7318 604.953 81.8906 604.609 82C604.271 82.1042 603.854 82.1562 603.359 82.1562C602.839 82.1562 602.375 82.0651 601.969 81.8828C601.568 81.7005 601.25 81.4245 601.016 81.0547C600.786 80.6849 600.672 80.2161 600.672 79.6484C600.672 78.7943 601.01 78.138 601.688 77.6797C602.365 77.2214 603.396 76.9714 604.781 76.9297L606.258 76.8672V76.3438C606.258 75.6042 606.099 75.0859 605.781 74.7891C605.464 74.4922 605.016 74.3438 604.438 74.3438C603.99 74.3438 603.562 74.4089 603.156 74.5391C602.75 74.6693 602.365 74.8229 602 75L601.602 74.0156C601.987 73.8177 602.43 73.6484 602.93 73.5078C603.43 73.3672 603.956 73.2969 604.508 73.2969ZM606.242 77.7812L604.938 77.8359C603.87 77.8776 603.117 78.0521 602.68 78.3594C602.242 78.6667 602.023 79.1016 602.023 79.6641C602.023 80.1536 602.172 80.5156 602.469 80.75C602.766 80.9844 603.159 81.1016 603.648 81.1016C604.409 81.1016 605.031 80.8906 605.516 80.4688C606 80.0469 606.242 79.4141 606.242 78.5703V77.7812ZM612.961 81.0938C613.174 81.0938 613.393 81.0755 613.617 81.0391C613.841 81.0026 614.023 80.9583 614.164 80.9062V81.9141C614.013 81.9818 613.802 82.0391 613.531 82.0859C613.266 82.1328 613.005 82.1562 612.75 82.1562C612.297 82.1562 611.885 82.0781 611.516 81.9219C611.146 81.7604 610.849 81.4896 610.625 81.1094C610.406 80.7292 610.297 80.2031 610.297 79.5312V74.4531H609.078V73.8203L610.305 73.3125L610.82 71.4531H611.602V73.4375H614.109V74.4531H611.602V79.4922C611.602 80.0286 611.724 80.4297 611.969 80.6953C612.219 80.9609 612.549 81.0938 612.961 81.0938ZM617.195 73.4375V82H615.898V73.4375H617.195ZM616.562 70.2344C616.776 70.2344 616.958 70.3047 617.109 70.4453C617.266 70.5807 617.344 70.7943 617.344 71.0859C617.344 71.3724 617.266 71.5859 617.109 71.7266C616.958 71.8672 616.776 71.9375 616.562 71.9375C616.339 71.9375 616.151 71.8672 616 71.7266C615.854 71.5859 615.781 71.3724 615.781 71.0859C615.781 70.7943 615.854 70.5807 616 70.4453C616.151 70.3047 616.339 70.2344 616.562 70.2344ZM627.328 77.7031C627.328 78.4062 627.237 79.0339 627.055 79.5859C626.872 80.138 626.609 80.6042 626.266 80.9844C625.922 81.3646 625.505 81.6562 625.016 81.8594C624.531 82.0573 623.982 82.1562 623.367 82.1562C622.794 82.1562 622.268 82.0573 621.789 81.8594C621.315 81.6562 620.904 81.3646 620.555 80.9844C620.211 80.6042 619.943 80.138 619.75 79.5859C619.562 79.0339 619.469 78.4062 619.469 77.7031C619.469 76.7656 619.628 75.9688 619.945 75.3125C620.263 74.651 620.716 74.1484 621.305 73.8047C621.898 73.4557 622.604 73.2812 623.422 73.2812C624.203 73.2812 624.885 73.4557 625.469 73.8047C626.057 74.1536 626.513 74.6589 626.836 75.3203C627.164 75.9766 627.328 76.7708 627.328 77.7031ZM620.812 77.7031C620.812 78.3906 620.904 78.987 621.086 79.4922C621.268 79.9974 621.549 80.388 621.93 80.6641C622.31 80.9401 622.799 81.0781 623.398 81.0781C623.992 81.0781 624.479 80.9401 624.859 80.6641C625.245 80.388 625.529 79.9974 625.711 79.4922C625.893 78.987 625.984 78.3906 625.984 77.7031C625.984 77.0208 625.893 76.4323 625.711 75.9375C625.529 75.4375 625.247 75.0521 624.867 74.7812C624.487 74.5104 623.995 74.375 623.391 74.375C622.5 74.375 621.846 74.6693 621.43 75.2578C621.018 75.8464 620.812 76.6615 620.812 77.7031ZM633.625 73.2812C634.641 73.2812 635.409 73.5312 635.93 74.0312C636.451 74.526 636.711 75.3229 636.711 76.4219V82H635.43V76.5078C635.43 75.7943 635.266 75.2604 634.938 74.9062C634.615 74.5521 634.117 74.375 633.445 74.375C632.497 74.375 631.831 74.6432 631.445 75.1797C631.06 75.7161 630.867 76.4948 630.867 77.5156V82H629.57V73.4375H630.617L630.812 74.6719H630.883C631.065 74.3698 631.297 74.1172 631.578 73.9141C631.859 73.7057 632.174 73.5495 632.523 73.4453C632.872 73.3359 633.24 73.2812 633.625 73.2812ZM642.586 73.2969C643.607 73.2969 644.365 73.526 644.859 73.9844C645.354 74.4427 645.602 75.1745 645.602 76.1797V82H644.656L644.406 80.7344H644.344C644.104 81.0469 643.854 81.3099 643.594 81.5234C643.333 81.7318 643.031 81.8906 642.688 82C642.349 82.1042 641.932 82.1562 641.438 82.1562C640.917 82.1562 640.453 82.0651 640.047 81.8828C639.646 81.7005 639.328 81.4245 639.094 81.0547C638.865 80.6849 638.75 80.2161 638.75 79.6484C638.75 78.7943 639.089 78.138 639.766 77.6797C640.443 77.2214 641.474 76.9714 642.859 76.9297L644.336 76.8672V76.3438C644.336 75.6042 644.177 75.0859 643.859 74.7891C643.542 74.4922 643.094 74.3438 642.516 74.3438C642.068 74.3438 641.641 74.4089 641.234 74.5391C640.828 74.6693 640.443 74.8229 640.078 75L639.68 74.0156C640.065 73.8177 640.508 73.6484 641.008 73.5078C641.508 73.3672 642.034 73.2969 642.586 73.2969ZM644.32 77.7812L643.016 77.8359C641.948 77.8776 641.195 78.0521 640.758 78.3594C640.32 78.6667 640.102 79.1016 640.102 79.6641C640.102 80.1536 640.25 80.5156 640.547 80.75C640.844 80.9844 641.237 81.1016 641.727 81.1016C642.487 81.1016 643.109 80.8906 643.594 80.4688C644.078 80.0469 644.32 79.4141 644.32 78.5703V77.7812ZM649.578 82H648.273V69.8438H649.578V82ZM663.836 82L662.43 78.375H657.852L656.453 82H655.109L659.578 70.5312H660.773L665.211 82H663.836ZM662.031 77.1953L660.695 73.5938C660.664 73.5 660.612 73.3464 660.539 73.1328C660.471 72.9193 660.401 72.6979 660.328 72.4688C660.255 72.2396 660.195 72.0547 660.148 71.9141C660.096 72.1276 660.039 72.3411 659.977 72.5547C659.919 72.763 659.862 72.9583 659.805 73.1406C659.747 73.3177 659.698 73.4688 659.656 73.5938L658.297 77.1953H662.031ZM667.898 73.4375V82H666.602V73.4375H667.898ZM667.266 70.2344C667.479 70.2344 667.661 70.3047 667.812 70.4453C667.969 70.5807 668.047 70.7943 668.047 71.0859C668.047 71.3724 667.969 71.5859 667.812 71.7266C667.661 71.8672 667.479 71.9375 667.266 71.9375C667.042 71.9375 666.854 71.8672 666.703 71.7266C666.557 71.5859 666.484 71.3724 666.484 71.0859C666.484 70.7943 666.557 70.5807 666.703 70.4453C666.854 70.3047 667.042 70.2344 667.266 70.2344ZM674.539 73.2812C674.711 73.2812 674.891 73.2917 675.078 73.3125C675.266 73.3281 675.432 73.3516 675.578 73.3828L675.414 74.5859C675.273 74.5495 675.117 74.5208 674.945 74.5C674.773 74.4792 674.612 74.4688 674.461 74.4688C674.117 74.4688 673.792 74.5391 673.484 74.6797C673.182 74.8151 672.917 75.013 672.688 75.2734C672.458 75.5286 672.279 75.8385 672.148 76.2031C672.018 76.5625 671.953 76.9635 671.953 77.4062V82H670.648V73.4375H671.727L671.867 75.0156H671.922C672.099 74.6979 672.312 74.4089 672.562 74.1484C672.812 73.8828 673.102 73.6719 673.43 73.5156C673.763 73.3594 674.133 73.2812 674.539 73.2812ZM681.219 73.2812C682.286 73.2812 683.138 73.6484 683.773 74.3828C684.409 75.1172 684.727 76.2214 684.727 77.6953C684.727 78.6693 684.581 79.487 684.289 80.1484C683.997 80.8099 683.586 81.3099 683.055 81.6484C682.529 81.987 681.906 82.1562 681.188 82.1562C680.734 82.1562 680.336 82.0964 679.992 81.9766C679.648 81.8568 679.354 81.6953 679.109 81.4922C678.865 81.2891 678.661 81.0677 678.5 80.8281H678.406C678.422 81.0312 678.44 81.276 678.461 81.5625C678.487 81.849 678.5 82.099 678.5 82.3125V85.8281H677.195V73.4375H678.266L678.438 74.7031H678.5C678.667 74.4427 678.87 74.2057 679.109 73.9922C679.349 73.7734 679.641 73.6016 679.984 73.4766C680.333 73.3464 680.745 73.2812 681.219 73.2812ZM680.992 74.375C680.398 74.375 679.919 74.4896 679.555 74.7188C679.195 74.9479 678.932 75.2917 678.766 75.75C678.599 76.2031 678.51 76.7734 678.5 77.4609V77.7109C678.5 78.4349 678.578 79.0469 678.734 79.5469C678.896 80.0469 679.159 80.4271 679.523 80.6875C679.893 80.9479 680.388 81.0781 681.008 81.0781C681.539 81.0781 681.982 80.9349 682.336 80.6484C682.69 80.362 682.953 79.9635 683.125 79.4531C683.302 78.9375 683.391 78.3464 683.391 77.6797C683.391 76.6693 683.193 75.8672 682.797 75.2734C682.406 74.6745 681.805 74.375 680.992 74.375ZM694.375 77.7031C694.375 78.4062 694.284 79.0339 694.102 79.5859C693.919 80.138 693.656 80.6042 693.312 80.9844C692.969 81.3646 692.552 81.6562 692.062 81.8594C691.578 82.0573 691.029 82.1562 690.414 82.1562C689.841 82.1562 689.315 82.0573 688.836 81.8594C688.362 81.6562 687.951 81.3646 687.602 80.9844C687.258 80.6042 686.99 80.138 686.797 79.5859C686.609 79.0339 686.516 78.4062 686.516 77.7031C686.516 76.7656 686.674 75.9688 686.992 75.3125C687.31 74.651 687.763 74.1484 688.352 73.8047C688.945 73.4557 689.651 73.2812 690.469 73.2812C691.25 73.2812 691.932 73.4557 692.516 73.8047C693.104 74.1536 693.56 74.6589 693.883 75.3203C694.211 75.9766 694.375 76.7708 694.375 77.7031ZM687.859 77.7031C687.859 78.3906 687.951 78.987 688.133 79.4922C688.315 79.9974 688.596 80.388 688.977 80.6641C689.357 80.9401 689.846 81.0781 690.445 81.0781C691.039 81.0781 691.526 80.9401 691.906 80.6641C692.292 80.388 692.576 79.9974 692.758 79.4922C692.94 78.987 693.031 78.3906 693.031 77.7031C693.031 77.0208 692.94 76.4323 692.758 75.9375C692.576 75.4375 692.294 75.0521 691.914 74.7812C691.534 74.5104 691.042 74.375 690.438 74.375C689.547 74.375 688.893 74.6693 688.477 75.2578C688.065 75.8464 687.859 76.6615 687.859 77.7031ZM700.508 73.2812C700.68 73.2812 700.859 73.2917 701.047 73.3125C701.234 73.3281 701.401 73.3516 701.547 73.3828L701.383 74.5859C701.242 74.5495 701.086 74.5208 700.914 74.5C700.742 74.4792 700.581 74.4688 700.43 74.4688C700.086 74.4688 699.76 74.5391 699.453 74.6797C699.151 74.8151 698.885 75.013 698.656 75.2734C698.427 75.5286 698.247 75.8385 698.117 76.2031C697.987 76.5625 697.922 76.9635 697.922 77.4062V82H696.617V73.4375H697.695L697.836 75.0156H697.891C698.068 74.6979 698.281 74.4089 698.531 74.1484C698.781 73.8828 699.07 73.6719 699.398 73.5156C699.732 73.3594 700.102 73.2812 700.508 73.2812ZM705.93 81.0938C706.143 81.0938 706.362 81.0755 706.586 81.0391C706.81 81.0026 706.992 80.9583 707.133 80.9062V81.9141C706.982 81.9818 706.771 82.0391 706.5 82.0859C706.234 82.1328 705.974 82.1562 705.719 82.1562C705.266 82.1562 704.854 82.0781 704.484 81.9219C704.115 81.7604 703.818 81.4896 703.594 81.1094C703.375 80.7292 703.266 80.2031 703.266 79.5312V74.4531H702.047V73.8203L703.273 73.3125L703.789 71.4531H704.57V73.4375H707.078V74.4531H704.57V79.4922C704.57 80.0286 704.693 80.4297 704.938 80.6953C705.188 80.9609 705.518 81.0938 705.93 81.0938Z" fill="#333333"/>
<path d="M458.891 136H457.562V124.578H463.922V125.75H458.891V129.938H463.617V131.102H458.891V136ZM469.523 127.281C469.695 127.281 469.875 127.292 470.062 127.312C470.25 127.328 470.417 127.352 470.562 127.383L470.398 128.586C470.258 128.549 470.102 128.521 469.93 128.5C469.758 128.479 469.596 128.469 469.445 128.469C469.102 128.469 468.776 128.539 468.469 128.68C468.167 128.815 467.901 129.013 467.672 129.273C467.443 129.529 467.263 129.839 467.133 130.203C467.003 130.562 466.938 130.964 466.938 131.406V136H465.633V127.438H466.711L466.852 129.016H466.906C467.083 128.698 467.297 128.409 467.547 128.148C467.797 127.883 468.086 127.672 468.414 127.516C468.747 127.359 469.117 127.281 469.523 127.281ZM479.562 131.703C479.562 132.406 479.471 133.034 479.289 133.586C479.107 134.138 478.844 134.604 478.5 134.984C478.156 135.365 477.74 135.656 477.25 135.859C476.766 136.057 476.216 136.156 475.602 136.156C475.029 136.156 474.503 136.057 474.023 135.859C473.549 135.656 473.138 135.365 472.789 134.984C472.445 134.604 472.177 134.138 471.984 133.586C471.797 133.034 471.703 132.406 471.703 131.703C471.703 130.766 471.862 129.969 472.18 129.312C472.497 128.651 472.951 128.148 473.539 127.805C474.133 127.456 474.839 127.281 475.656 127.281C476.438 127.281 477.12 127.456 477.703 127.805C478.292 128.154 478.747 128.659 479.07 129.32C479.398 129.977 479.562 130.771 479.562 131.703ZM473.047 131.703C473.047 132.391 473.138 132.987 473.32 133.492C473.503 133.997 473.784 134.388 474.164 134.664C474.544 134.94 475.034 135.078 475.633 135.078C476.227 135.078 476.714 134.94 477.094 134.664C477.479 134.388 477.763 133.997 477.945 133.492C478.128 132.987 478.219 132.391 478.219 131.703C478.219 131.021 478.128 130.432 477.945 129.938C477.763 129.438 477.482 129.052 477.102 128.781C476.721 128.51 476.229 128.375 475.625 128.375C474.734 128.375 474.081 128.669 473.664 129.258C473.253 129.846 473.047 130.661 473.047 131.703ZM491.102 127.281C492.044 127.281 492.755 127.529 493.234 128.023C493.714 128.513 493.953 129.302 493.953 130.391V136H492.672V130.453C492.672 129.76 492.521 129.242 492.219 128.898C491.922 128.549 491.479 128.375 490.891 128.375C490.062 128.375 489.461 128.615 489.086 129.094C488.711 129.573 488.523 130.279 488.523 131.211V136H487.234V130.453C487.234 129.99 487.167 129.604 487.031 129.297C486.901 128.99 486.703 128.76 486.438 128.609C486.177 128.453 485.846 128.375 485.445 128.375C484.878 128.375 484.422 128.492 484.078 128.727C483.734 128.961 483.484 129.31 483.328 129.773C483.177 130.232 483.102 130.797 483.102 131.469V136H481.805V127.438H482.852L483.047 128.648H483.117C483.289 128.352 483.505 128.102 483.766 127.898C484.026 127.695 484.318 127.542 484.641 127.438C484.964 127.333 485.307 127.281 485.672 127.281C486.323 127.281 486.867 127.404 487.305 127.648C487.747 127.888 488.068 128.255 488.266 128.75H488.336C488.617 128.255 489.003 127.888 489.492 127.648C489.982 127.404 490.518 127.281 491.102 127.281ZM509.203 136H507.633L503.516 130.445L502.297 131.539V136H500.969V124.578H502.297V130.273C502.594 129.935 502.898 129.599 503.211 129.266C503.523 128.927 503.833 128.586 504.141 128.242L507.477 124.578H509.031L504.484 129.531L509.203 136ZM517.953 131.703C517.953 132.406 517.862 133.034 517.68 133.586C517.497 134.138 517.234 134.604 516.891 134.984C516.547 135.365 516.13 135.656 515.641 135.859C515.156 136.057 514.607 136.156 513.992 136.156C513.419 136.156 512.893 136.057 512.414 135.859C511.94 135.656 511.529 135.365 511.18 134.984C510.836 134.604 510.568 134.138 510.375 133.586C510.188 133.034 510.094 132.406 510.094 131.703C510.094 130.766 510.253 129.969 510.57 129.312C510.888 128.651 511.341 128.148 511.93 127.805C512.523 127.456 513.229 127.281 514.047 127.281C514.828 127.281 515.51 127.456 516.094 127.805C516.682 128.154 517.138 128.659 517.461 129.32C517.789 129.977 517.953 130.771 517.953 131.703ZM511.438 131.703C511.438 132.391 511.529 132.987 511.711 133.492C511.893 133.997 512.174 134.388 512.555 134.664C512.935 134.94 513.424 135.078 514.023 135.078C514.617 135.078 515.104 134.94 515.484 134.664C515.87 134.388 516.154 133.997 516.336 133.492C516.518 132.987 516.609 132.391 516.609 131.703C516.609 131.021 516.518 130.432 516.336 129.938C516.154 129.438 515.872 129.052 515.492 128.781C515.112 128.51 514.62 128.375 514.016 128.375C513.125 128.375 512.471 128.669 512.055 129.258C511.643 129.846 511.438 130.661 511.438 131.703ZM522.961 135.094C523.174 135.094 523.393 135.076 523.617 135.039C523.841 135.003 524.023 134.958 524.164 134.906V135.914C524.013 135.982 523.802 136.039 523.531 136.086C523.266 136.133 523.005 136.156 522.75 136.156C522.297 136.156 521.885 136.078 521.516 135.922C521.146 135.76 520.849 135.49 520.625 135.109C520.406 134.729 520.297 134.203 520.297 133.531V128.453H519.078V127.82L520.305 127.312L520.82 125.453H521.602V127.438H524.109V128.453H521.602V133.492C521.602 134.029 521.724 134.43 521.969 134.695C522.219 134.961 522.549 135.094 522.961 135.094ZM528.664 135.094C528.878 135.094 529.096 135.076 529.32 135.039C529.544 135.003 529.727 134.958 529.867 134.906V135.914C529.716 135.982 529.505 136.039 529.234 136.086C528.969 136.133 528.708 136.156 528.453 136.156C528 136.156 527.589 136.078 527.219 135.922C526.849 135.76 526.552 135.49 526.328 135.109C526.109 134.729 526 134.203 526 133.531V128.453H524.781V127.82L526.008 127.312L526.523 125.453H527.305V127.438H529.812V128.453H527.305V133.492C527.305 134.029 527.427 134.43 527.672 134.695C527.922 134.961 528.253 135.094 528.664 135.094ZM534.805 127.297C535.826 127.297 536.583 127.526 537.078 127.984C537.573 128.443 537.82 129.174 537.82 130.18V136H536.875L536.625 134.734H536.562C536.323 135.047 536.073 135.31 535.812 135.523C535.552 135.732 535.25 135.891 534.906 136C534.568 136.104 534.151 136.156 533.656 136.156C533.135 136.156 532.672 136.065 532.266 135.883C531.865 135.701 531.547 135.424 531.312 135.055C531.083 134.685 530.969 134.216 530.969 133.648C530.969 132.794 531.307 132.138 531.984 131.68C532.661 131.221 533.693 130.971 535.078 130.93L536.555 130.867V130.344C536.555 129.604 536.396 129.086 536.078 128.789C535.76 128.492 535.312 128.344 534.734 128.344C534.286 128.344 533.859 128.409 533.453 128.539C533.047 128.669 532.661 128.823 532.297 129L531.898 128.016C532.284 127.818 532.727 127.648 533.227 127.508C533.727 127.367 534.253 127.297 534.805 127.297ZM536.539 131.781L535.234 131.836C534.167 131.878 533.414 132.052 532.977 132.359C532.539 132.667 532.32 133.102 532.32 133.664C532.32 134.154 532.469 134.516 532.766 134.75C533.062 134.984 533.456 135.102 533.945 135.102C534.706 135.102 535.328 134.891 535.812 134.469C536.297 134.047 536.539 133.414 536.539 132.57V131.781ZM539.141 127.438H540.531L542.422 132.406C542.531 132.698 542.633 132.979 542.727 133.25C542.82 133.516 542.904 133.771 542.977 134.016C543.049 134.26 543.107 134.497 543.148 134.727H543.203C543.276 134.466 543.38 134.125 543.516 133.703C543.651 133.276 543.797 132.841 543.953 132.398L545.742 127.438H547.141L543.414 137.258C543.216 137.784 542.984 138.242 542.719 138.633C542.458 139.023 542.141 139.323 541.766 139.531C541.391 139.745 540.938 139.852 540.406 139.852C540.161 139.852 539.945 139.836 539.758 139.805C539.57 139.779 539.409 139.747 539.273 139.711V138.672C539.388 138.698 539.526 138.721 539.688 138.742C539.854 138.763 540.026 138.773 540.203 138.773C540.526 138.773 540.805 138.711 541.039 138.586C541.279 138.466 541.484 138.289 541.656 138.055C541.828 137.82 541.977 137.542 542.102 137.219L542.57 136.016L539.141 127.438ZM551.711 127.297C552.732 127.297 553.49 127.526 553.984 127.984C554.479 128.443 554.727 129.174 554.727 130.18V136H553.781L553.531 134.734H553.469C553.229 135.047 552.979 135.31 552.719 135.523C552.458 135.732 552.156 135.891 551.812 136C551.474 136.104 551.057 136.156 550.562 136.156C550.042 136.156 549.578 136.065 549.172 135.883C548.771 135.701 548.453 135.424 548.219 135.055C547.99 134.685 547.875 134.216 547.875 133.648C547.875 132.794 548.214 132.138 548.891 131.68C549.568 131.221 550.599 130.971 551.984 130.93L553.461 130.867V130.344C553.461 129.604 553.302 129.086 552.984 128.789C552.667 128.492 552.219 128.344 551.641 128.344C551.193 128.344 550.766 128.409 550.359 128.539C549.953 128.669 549.568 128.823 549.203 129L548.805 128.016C549.19 127.818 549.633 127.648 550.133 127.508C550.633 127.367 551.159 127.297 551.711 127.297ZM553.445 131.781L552.141 131.836C551.073 131.878 550.32 132.052 549.883 132.359C549.445 132.667 549.227 133.102 549.227 133.664C549.227 134.154 549.375 134.516 549.672 134.75C549.969 134.984 550.362 135.102 550.852 135.102C551.612 135.102 552.234 134.891 552.719 134.469C553.203 134.047 553.445 133.414 553.445 132.57V131.781ZM566.695 127.281C567.638 127.281 568.349 127.529 568.828 128.023C569.307 128.513 569.547 129.302 569.547 130.391V136H568.266V130.453C568.266 129.76 568.115 129.242 567.812 128.898C567.516 128.549 567.073 128.375 566.484 128.375C565.656 128.375 565.055 128.615 564.68 129.094C564.305 129.573 564.117 130.279 564.117 131.211V136H562.828V130.453C562.828 129.99 562.76 129.604 562.625 129.297C562.495 128.99 562.297 128.76 562.031 128.609C561.771 128.453 561.44 128.375 561.039 128.375C560.471 128.375 560.016 128.492 559.672 128.727C559.328 128.961 559.078 129.31 558.922 129.773C558.771 130.232 558.695 130.797 558.695 131.469V136H557.398V127.438H558.445L558.641 128.648H558.711C558.883 128.352 559.099 128.102 559.359 127.898C559.62 127.695 559.911 127.542 560.234 127.438C560.557 127.333 560.901 127.281 561.266 127.281C561.917 127.281 562.461 127.404 562.898 127.648C563.341 127.888 563.661 128.255 563.859 128.75H563.93C564.211 128.255 564.596 127.888 565.086 127.648C565.576 127.404 566.112 127.281 566.695 127.281ZM579.648 124.578C580.586 124.578 581.359 124.695 581.969 124.93C582.583 125.159 583.042 125.51 583.344 125.984C583.646 126.458 583.797 127.062 583.797 127.797C583.797 128.401 583.688 128.906 583.469 129.312C583.25 129.714 582.964 130.039 582.609 130.289C582.255 130.539 581.878 130.732 581.477 130.867L584.609 136H583.062L580.266 131.234H577.891V136H576.562V124.578H579.648ZM579.57 125.727H577.891V130.109H579.703C580.635 130.109 581.32 129.919 581.758 129.539C582.201 129.159 582.422 128.599 582.422 127.859C582.422 127.083 582.188 126.534 581.719 126.211C581.255 125.888 580.539 125.727 579.57 125.727ZM589.445 127.297C590.466 127.297 591.224 127.526 591.719 127.984C592.214 128.443 592.461 129.174 592.461 130.18V136H591.516L591.266 134.734H591.203C590.964 135.047 590.714 135.31 590.453 135.523C590.193 135.732 589.891 135.891 589.547 136C589.208 136.104 588.792 136.156 588.297 136.156C587.776 136.156 587.312 136.065 586.906 135.883C586.505 135.701 586.188 135.424 585.953 135.055C585.724 134.685 585.609 134.216 585.609 133.648C585.609 132.794 585.948 132.138 586.625 131.68C587.302 131.221 588.333 130.971 589.719 130.93L591.195 130.867V130.344C591.195 129.604 591.036 129.086 590.719 128.789C590.401 128.492 589.953 128.344 589.375 128.344C588.927 128.344 588.5 128.409 588.094 128.539C587.688 128.669 587.302 128.823 586.938 129L586.539 128.016C586.924 127.818 587.367 127.648 587.867 127.508C588.367 127.367 588.893 127.297 589.445 127.297ZM591.18 131.781L589.875 131.836C588.807 131.878 588.055 132.052 587.617 132.359C587.18 132.667 586.961 133.102 586.961 133.664C586.961 134.154 587.109 134.516 587.406 134.75C587.703 134.984 588.096 135.102 588.586 135.102C589.346 135.102 589.969 134.891 590.453 134.469C590.938 134.047 591.18 133.414 591.18 132.57V131.781ZM596.43 127.438V136H595.133V127.438H596.43ZM595.797 124.234C596.01 124.234 596.193 124.305 596.344 124.445C596.5 124.581 596.578 124.794 596.578 125.086C596.578 125.372 596.5 125.586 596.344 125.727C596.193 125.867 596.01 125.938 595.797 125.938C595.573 125.938 595.385 125.867 595.234 125.727C595.089 125.586 595.016 125.372 595.016 125.086C595.016 124.794 595.089 124.581 595.234 124.445C595.385 124.305 595.573 124.234 595.797 124.234ZM600.484 136H599.18V123.844H600.484V136ZM610.195 135.984L608.672 131C608.604 130.786 608.539 130.578 608.477 130.375C608.419 130.167 608.365 129.969 608.312 129.781C608.266 129.589 608.221 129.411 608.18 129.25C608.143 129.083 608.112 128.94 608.086 128.82H608.031C608.01 128.94 607.982 129.083 607.945 129.25C607.909 129.411 607.865 129.589 607.812 129.781C607.766 129.974 607.714 130.177 607.656 130.391C607.599 130.599 607.534 130.81 607.461 131.023L605.867 135.984H604.406L602.047 127.422H603.391L604.625 132.148C604.708 132.461 604.786 132.771 604.859 133.078C604.938 133.38 605.003 133.667 605.055 133.938C605.112 134.203 605.154 134.435 605.18 134.633H605.242C605.273 134.503 605.307 134.346 605.344 134.164C605.385 133.982 605.43 133.789 605.477 133.586C605.529 133.378 605.583 133.172 605.641 132.969C605.698 132.76 605.755 132.565 605.812 132.383L607.391 127.422H608.789L610.312 132.375C610.391 132.625 610.466 132.885 610.539 133.156C610.617 133.427 610.688 133.69 610.75 133.945C610.812 134.195 610.857 134.419 610.883 134.617H610.945C610.966 134.44 611.005 134.221 611.062 133.961C611.12 133.701 611.185 133.414 611.258 133.102C611.336 132.789 611.417 132.471 611.5 132.148L612.75 127.422H614.07L611.703 135.984H610.195ZM618.836 127.297C619.857 127.297 620.615 127.526 621.109 127.984C621.604 128.443 621.852 129.174 621.852 130.18V136H620.906L620.656 134.734H620.594C620.354 135.047 620.104 135.31 619.844 135.523C619.583 135.732 619.281 135.891 618.938 136C618.599 136.104 618.182 136.156 617.688 136.156C617.167 136.156 616.703 136.065 616.297 135.883C615.896 135.701 615.578 135.424 615.344 135.055C615.115 134.685 615 134.216 615 133.648C615 132.794 615.339 132.138 616.016 131.68C616.693 131.221 617.724 130.971 619.109 130.93L620.586 130.867V130.344C620.586 129.604 620.427 129.086 620.109 128.789C619.792 128.492 619.344 128.344 618.766 128.344C618.318 128.344 617.891 128.409 617.484 128.539C617.078 128.669 616.693 128.823 616.328 129L615.93 128.016C616.315 127.818 616.758 127.648 617.258 127.508C617.758 127.367 618.284 127.297 618.836 127.297ZM620.57 131.781L619.266 131.836C618.198 131.878 617.445 132.052 617.008 132.359C616.57 132.667 616.352 133.102 616.352 133.664C616.352 134.154 616.5 134.516 616.797 134.75C617.094 134.984 617.487 135.102 617.977 135.102C618.737 135.102 619.359 134.891 619.844 134.469C620.328 134.047 620.57 133.414 620.57 132.57V131.781ZM623.172 127.438H624.562L626.453 132.406C626.562 132.698 626.664 132.979 626.758 133.25C626.852 133.516 626.935 133.771 627.008 134.016C627.081 134.26 627.138 134.497 627.18 134.727H627.234C627.307 134.466 627.411 134.125 627.547 133.703C627.682 133.276 627.828 132.841 627.984 132.398L629.773 127.438H631.172L627.445 137.258C627.247 137.784 627.016 138.242 626.75 138.633C626.49 139.023 626.172 139.323 625.797 139.531C625.422 139.745 624.969 139.852 624.438 139.852C624.193 139.852 623.977 139.836 623.789 139.805C623.602 139.779 623.44 139.747 623.305 139.711V138.672C623.419 138.698 623.557 138.721 623.719 138.742C623.885 138.763 624.057 138.773 624.234 138.773C624.557 138.773 624.836 138.711 625.07 138.586C625.31 138.466 625.516 138.289 625.688 138.055C625.859 137.82 626.008 137.542 626.133 137.219L626.602 136.016L623.172 127.438ZM643.336 132.961C643.336 133.638 643.167 134.216 642.828 134.695C642.495 135.169 642.026 135.531 641.422 135.781C640.818 136.031 640.107 136.156 639.289 136.156C638.857 136.156 638.448 136.135 638.062 136.094C637.677 136.052 637.323 135.992 637 135.914C636.677 135.836 636.393 135.74 636.148 135.625V134.352C636.539 134.513 637.016 134.664 637.578 134.805C638.141 134.94 638.729 135.008 639.344 135.008C639.917 135.008 640.401 134.932 640.797 134.781C641.193 134.625 641.492 134.404 641.695 134.117C641.904 133.826 642.008 133.477 642.008 133.07C642.008 132.68 641.922 132.354 641.75 132.094C641.578 131.828 641.292 131.589 640.891 131.375C640.495 131.156 639.953 130.924 639.266 130.68C638.781 130.508 638.354 130.32 637.984 130.117C637.615 129.909 637.305 129.674 637.055 129.414C636.805 129.154 636.615 128.852 636.484 128.508C636.359 128.164 636.297 127.771 636.297 127.328C636.297 126.719 636.451 126.198 636.758 125.766C637.07 125.328 637.5 124.995 638.047 124.766C638.599 124.531 639.232 124.414 639.945 124.414C640.555 124.414 641.117 124.471 641.633 124.586C642.154 124.701 642.63 124.854 643.062 125.047L642.648 126.188C642.237 126.016 641.799 125.872 641.336 125.758C640.878 125.643 640.404 125.586 639.914 125.586C639.424 125.586 639.01 125.659 638.672 125.805C638.339 125.945 638.083 126.146 637.906 126.406C637.729 126.667 637.641 126.977 637.641 127.336C637.641 127.737 637.724 128.07 637.891 128.336C638.062 128.602 638.333 128.839 638.703 129.047C639.078 129.25 639.573 129.464 640.188 129.688C640.859 129.932 641.43 130.193 641.898 130.469C642.367 130.74 642.724 131.073 642.969 131.469C643.214 131.859 643.336 132.357 643.336 132.961ZM648.242 135.094C648.456 135.094 648.674 135.076 648.898 135.039C649.122 135.003 649.305 134.958 649.445 134.906V135.914C649.294 135.982 649.083 136.039 648.812 136.086C648.547 136.133 648.286 136.156 648.031 136.156C647.578 136.156 647.167 136.078 646.797 135.922C646.427 135.76 646.13 135.49 645.906 135.109C645.688 134.729 645.578 134.203 645.578 133.531V128.453H644.359V127.82L645.586 127.312L646.102 125.453H646.883V127.438H649.391V128.453H646.883V133.492C646.883 134.029 647.005 134.43 647.25 134.695C647.5 134.961 647.831 135.094 648.242 135.094ZM654.383 127.297C655.404 127.297 656.161 127.526 656.656 127.984C657.151 128.443 657.398 129.174 657.398 130.18V136H656.453L656.203 134.734H656.141C655.901 135.047 655.651 135.31 655.391 135.523C655.13 135.732 654.828 135.891 654.484 136C654.146 136.104 653.729 136.156 653.234 136.156C652.714 136.156 652.25 136.065 651.844 135.883C651.443 135.701 651.125 135.424 650.891 135.055C650.661 134.685 650.547 134.216 650.547 133.648C650.547 132.794 650.885 132.138 651.562 131.68C652.24 131.221 653.271 130.971 654.656 130.93L656.133 130.867V130.344C656.133 129.604 655.974 129.086 655.656 128.789C655.339 128.492 654.891 128.344 654.312 128.344C653.865 128.344 653.438 128.409 653.031 128.539C652.625 128.669 652.24 128.823 651.875 129L651.477 128.016C651.862 127.818 652.305 127.648 652.805 127.508C653.305 127.367 653.831 127.297 654.383 127.297ZM656.117 131.781L654.812 131.836C653.745 131.878 652.992 132.052 652.555 132.359C652.117 132.667 651.898 133.102 651.898 133.664C651.898 134.154 652.047 134.516 652.344 134.75C652.641 134.984 653.034 135.102 653.523 135.102C654.284 135.102 654.906 134.891 655.391 134.469C655.875 134.047 656.117 133.414 656.117 132.57V131.781ZM662.836 135.094C663.049 135.094 663.268 135.076 663.492 135.039C663.716 135.003 663.898 134.958 664.039 134.906V135.914C663.888 135.982 663.677 136.039 663.406 136.086C663.141 136.133 662.88 136.156 662.625 136.156C662.172 136.156 661.76 136.078 661.391 135.922C661.021 135.76 660.724 135.49 660.5 135.109C660.281 134.729 660.172 134.203 660.172 133.531V128.453H658.953V127.82L660.18 127.312L660.695 125.453H661.477V127.438H663.984V128.453H661.477V133.492C661.477 134.029 661.599 134.43 661.844 134.695C662.094 134.961 662.424 135.094 662.836 135.094ZM667.07 127.438V136H665.773V127.438H667.07ZM666.438 124.234C666.651 124.234 666.833 124.305 666.984 124.445C667.141 124.581 667.219 124.794 667.219 125.086C667.219 125.372 667.141 125.586 666.984 125.727C666.833 125.867 666.651 125.938 666.438 125.938C666.214 125.938 666.026 125.867 665.875 125.727C665.729 125.586 665.656 125.372 665.656 125.086C665.656 124.794 665.729 124.581 665.875 124.445C666.026 124.305 666.214 124.234 666.438 124.234ZM677.203 131.703C677.203 132.406 677.112 133.034 676.93 133.586C676.747 134.138 676.484 134.604 676.141 134.984C675.797 135.365 675.38 135.656 674.891 135.859C674.406 136.057 673.857 136.156 673.242 136.156C672.669 136.156 672.143 136.057 671.664 135.859C671.19 135.656 670.779 135.365 670.43 134.984C670.086 134.604 669.818 134.138 669.625 133.586C669.438 133.034 669.344 132.406 669.344 131.703C669.344 130.766 669.503 129.969 669.82 129.312C670.138 128.651 670.591 128.148 671.18 127.805C671.773 127.456 672.479 127.281 673.297 127.281C674.078 127.281 674.76 127.456 675.344 127.805C675.932 128.154 676.388 128.659 676.711 129.32C677.039 129.977 677.203 130.771 677.203 131.703ZM670.688 131.703C670.688 132.391 670.779 132.987 670.961 133.492C671.143 133.997 671.424 134.388 671.805 134.664C672.185 134.94 672.674 135.078 673.273 135.078C673.867 135.078 674.354 134.94 674.734 134.664C675.12 134.388 675.404 133.997 675.586 133.492C675.768 132.987 675.859 132.391 675.859 131.703C675.859 131.021 675.768 130.432 675.586 129.938C675.404 129.438 675.122 129.052 674.742 128.781C674.362 128.51 673.87 128.375 673.266 128.375C672.375 128.375 671.721 128.669 671.305 129.258C670.893 129.846 670.688 130.661 670.688 131.703ZM683.5 127.281C684.516 127.281 685.284 127.531 685.805 128.031C686.326 128.526 686.586 129.323 686.586 130.422V136H685.305V130.508C685.305 129.794 685.141 129.26 684.812 128.906C684.49 128.552 683.992 128.375 683.32 128.375C682.372 128.375 681.706 128.643 681.32 129.18C680.935 129.716 680.742 130.495 680.742 131.516V136H679.445V127.438H680.492L680.688 128.672H680.758C680.94 128.37 681.172 128.117 681.453 127.914C681.734 127.706 682.049 127.549 682.398 127.445C682.747 127.336 683.115 127.281 683.5 127.281Z" fill="#333333"/>
<rect x="377.25" y="52.25" width="429.5" height="47.5" rx="9.75" stroke="#999999" stroke-width="0.5"/>
<rect x="377.25" y="106.25" width="429.5" height="47.5" rx="9.75" stroke="#999999" stroke-width="0.5"/>
<path d="M9.07031 200.031C9.07031 201.224 8.67969 202.138 7.89844 202.773C7.11719 203.409 6.00521 203.727 4.5625 203.727H3.375V208H1.50781V196.578H4.79688C6.22396 196.578 7.29167 196.87 8 197.453C8.71354 198.036 9.07031 198.896 9.07031 200.031ZM3.375 202.156H4.36719C5.32552 202.156 6.02865 201.99 6.47656 201.656C6.92448 201.323 7.14844 200.802 7.14844 200.094C7.14844 199.438 6.94792 198.948 6.54688 198.625C6.14583 198.302 5.52083 198.141 4.67188 198.141H3.375V202.156ZM16.5625 208L16.1953 206.797H16.1328C15.7161 207.323 15.2969 207.682 14.875 207.875C14.4531 208.062 13.9115 208.156 13.25 208.156C12.401 208.156 11.737 207.927 11.2578 207.469C10.7839 207.01 10.5469 206.362 10.5469 205.523C10.5469 204.633 10.8776 203.961 11.5391 203.508C12.2005 203.055 13.2083 202.807 14.5625 202.766L16.0547 202.719V202.258C16.0547 201.706 15.9245 201.294 15.6641 201.023C15.4089 200.747 15.0104 200.609 14.4688 200.609C14.026 200.609 13.6016 200.674 13.1953 200.805C12.7891 200.935 12.3984 201.089 12.0234 201.266L11.4297 199.953C11.8984 199.708 12.4115 199.523 12.9688 199.398C13.526 199.268 14.0521 199.203 14.5469 199.203C15.6458 199.203 16.474 199.443 17.0312 199.922C17.5938 200.401 17.875 201.154 17.875 202.18V208H16.5625ZM13.8281 206.75C14.4948 206.75 15.0286 206.565 15.4297 206.195C15.8359 205.82 16.0391 205.297 16.0391 204.625V203.875L14.9297 203.922C14.0651 203.953 13.4349 204.099 13.0391 204.359C12.6484 204.615 12.4531 205.008 12.4531 205.539C12.4531 205.924 12.5677 206.224 12.7969 206.438C13.026 206.646 13.3698 206.75 13.8281 206.75ZM22.2734 208H20.4375V195.844H22.2734V208ZM30.3125 208L29.9453 206.797H29.8828C29.4661 207.323 29.0469 207.682 28.625 207.875C28.2031 208.062 27.6615 208.156 27 208.156C26.151 208.156 25.487 207.927 25.0078 207.469C24.5339 207.01 24.2969 206.362 24.2969 205.523C24.2969 204.633 24.6276 203.961 25.2891 203.508C25.9505 203.055 26.9583 202.807 28.3125 202.766L29.8047 202.719V202.258C29.8047 201.706 29.6745 201.294 29.4141 201.023C29.1589 200.747 28.7604 200.609 28.2188 200.609C27.776 200.609 27.3516 200.674 26.9453 200.805C26.5391 200.935 26.1484 201.089 25.7734 201.266L25.1797 199.953C25.6484 199.708 26.1615 199.523 26.7188 199.398C27.276 199.268 27.8021 199.203 28.2969 199.203C29.3958 199.203 30.224 199.443 30.7812 199.922C31.3438 200.401 31.625 201.154 31.625 202.18V208H30.3125ZM27.5781 206.75C28.2448 206.75 28.7786 206.565 29.1797 206.195C29.5859 205.82 29.7891 205.297 29.7891 204.625V203.875L28.6797 203.922C27.8151 203.953 27.1849 204.099 26.7891 204.359C26.3984 204.615 26.2031 205.008 26.2031 205.539C26.2031 205.924 26.3177 206.224 26.5469 206.438C26.776 206.646 27.1198 206.75 27.5781 206.75Z" fill="#333333"/>
<path d="M920.453 204H918.586V194.18H915.227V192.578H923.812V194.18H920.453V204ZM932.977 204H931.133V198.688C931.133 198.021 930.997 197.523 930.727 197.195C930.461 196.867 930.036 196.703 929.453 196.703C928.682 196.703 928.115 196.935 927.75 197.398C927.391 197.857 927.211 198.628 927.211 199.711V204H925.375V191.844H927.211V194.93C927.211 195.424 927.18 195.953 927.117 196.516H927.234C927.484 196.099 927.831 195.776 928.273 195.547C928.721 195.318 929.242 195.203 929.836 195.203C931.93 195.203 932.977 196.258 932.977 198.367V204ZM943.195 199.664C943.195 201.076 942.833 202.177 942.109 202.969C941.385 203.76 940.378 204.156 939.086 204.156C938.279 204.156 937.565 203.974 936.945 203.609C936.326 203.245 935.849 202.721 935.516 202.039C935.182 201.357 935.016 200.565 935.016 199.664C935.016 198.263 935.375 197.169 936.094 196.383C936.812 195.596 937.826 195.203 939.133 195.203C940.383 195.203 941.372 195.607 942.102 196.414C942.831 197.216 943.195 198.299 943.195 199.664ZM936.906 199.664C936.906 201.659 937.643 202.656 939.117 202.656C940.576 202.656 941.305 201.659 941.305 199.664C941.305 197.69 940.57 196.703 939.102 196.703C938.331 196.703 937.771 196.958 937.422 197.469C937.078 197.979 936.906 198.711 936.906 199.664ZM948.227 204.156C947.148 204.156 946.307 203.766 945.703 202.984C945.099 202.203 944.797 201.107 944.797 199.695C944.797 198.279 945.102 197.177 945.711 196.391C946.326 195.599 947.174 195.203 948.258 195.203C949.393 195.203 950.258 195.622 950.852 196.461H950.945C950.857 195.841 950.812 195.352 950.812 194.992V191.844H952.656V204H951.219L950.898 202.867H950.812C950.224 203.727 949.362 204.156 948.227 204.156ZM948.719 202.672C949.474 202.672 950.023 202.461 950.367 202.039C950.711 201.612 950.888 200.922 950.898 199.969V199.711C950.898 198.622 950.721 197.849 950.367 197.391C950.013 196.932 949.458 196.703 948.703 196.703C948.057 196.703 947.56 196.966 947.211 197.492C946.862 198.013 946.688 198.758 946.688 199.727C946.688 200.685 946.857 201.417 947.195 201.922C947.534 202.422 948.042 202.672 948.719 202.672ZM961.375 204L961.117 202.867H961.023C960.768 203.268 960.404 203.583 959.93 203.812C959.461 204.042 958.924 204.156 958.32 204.156C957.273 204.156 956.492 203.896 955.977 203.375C955.461 202.854 955.203 202.065 955.203 201.008V195.359H957.055V200.688C957.055 201.349 957.19 201.846 957.461 202.18C957.732 202.508 958.156 202.672 958.734 202.672C959.505 202.672 960.07 202.443 960.43 201.984C960.794 201.521 960.977 200.747 960.977 199.664V195.359H962.82V204H961.375ZM969.82 204.156C968.727 204.156 967.878 203.763 967.273 202.977H967.164C967.237 203.706 967.273 204.148 967.273 204.305V207.844H965.438V195.359H966.922C966.964 195.521 967.049 195.906 967.18 196.516H967.273C967.846 195.641 968.706 195.203 969.852 195.203C970.93 195.203 971.768 195.594 972.367 196.375C972.971 197.156 973.273 198.253 973.273 199.664C973.273 201.076 972.966 202.177 972.352 202.969C971.742 203.76 970.898 204.156 969.82 204.156ZM969.375 196.703C968.646 196.703 968.112 196.917 967.773 197.344C967.44 197.771 967.273 198.453 967.273 199.391V199.664C967.273 200.716 967.44 201.479 967.773 201.953C968.107 202.422 968.651 202.656 969.406 202.656C970.042 202.656 970.531 202.396 970.875 201.875C971.219 201.354 971.391 200.612 971.391 199.648C971.391 198.68 971.219 197.948 970.875 197.453C970.536 196.953 970.036 196.703 969.375 196.703ZM981.5 204L981.242 202.867H981.148C980.893 203.268 980.529 203.583 980.055 203.812C979.586 204.042 979.049 204.156 978.445 204.156C977.398 204.156 976.617 203.896 976.102 203.375C975.586 202.854 975.328 202.065 975.328 201.008V195.359H977.18V200.688C977.18 201.349 977.315 201.846 977.586 202.18C977.857 202.508 978.281 202.672 978.859 202.672C979.63 202.672 980.195 202.443 980.555 201.984C980.919 201.521 981.102 200.747 981.102 199.664V195.359H982.945V204H981.5ZM991.336 204H984.781V202.867L989.148 196.766H985.047V195.359H991.211V196.641L986.938 202.594H991.336V204ZM1000.82 204H998.977V198.688C998.977 198.021 998.841 197.523 998.57 197.195C998.305 196.867 997.88 196.703 997.297 196.703C996.526 196.703 995.958 196.935 995.594 197.398C995.234 197.857 995.055 198.628 995.055 199.711V204H993.219V191.844H995.055V194.93C995.055 195.424 995.023 195.953 994.961 196.516H995.078C995.328 196.099 995.674 195.776 996.117 195.547C996.565 195.318 997.086 195.203 997.68 195.203C999.773 195.203 1000.82 196.258 1000.82 198.367V204ZM1008.78 204L1008.41 202.797H1008.35C1007.93 203.323 1007.52 203.682 1007.09 203.875C1006.67 204.062 1006.13 204.156 1005.47 204.156C1004.62 204.156 1003.96 203.927 1003.48 203.469C1003 203.01 1002.77 202.362 1002.77 201.523C1002.77 200.633 1003.1 199.961 1003.76 199.508C1004.42 199.055 1005.43 198.807 1006.78 198.766L1008.27 198.719V198.258C1008.27 197.706 1008.14 197.294 1007.88 197.023C1007.63 196.747 1007.23 196.609 1006.69 196.609C1006.24 196.609 1005.82 196.674 1005.41 196.805C1005.01 196.935 1004.62 197.089 1004.24 197.266L1003.65 195.953C1004.12 195.708 1004.63 195.523 1005.19 195.398C1005.74 195.268 1006.27 195.203 1006.77 195.203C1007.86 195.203 1008.69 195.443 1009.25 195.922C1009.81 196.401 1010.09 197.154 1010.09 198.18V204H1008.78ZM1006.05 202.75C1006.71 202.75 1007.25 202.565 1007.65 202.195C1008.05 201.82 1008.26 201.297 1008.26 200.625V199.875L1007.15 199.922C1006.28 199.953 1005.65 200.099 1005.26 200.359C1004.87 200.615 1004.67 201.008 1004.67 201.539C1004.67 201.924 1004.79 202.224 1005.02 202.438C1005.24 202.646 1005.59 202.75 1006.05 202.75Z" fill="#333333"/>
<path d="M250.445 17L247.133 7.46094H247.07C247.159 8.8776 247.203 10.2057 247.203 11.4453V17H245.508V5.57812H248.141L251.312 14.6641H251.359L254.625 5.57812H257.266V17H255.469V11.3516C255.469 10.7839 255.482 10.0443 255.508 9.13281C255.539 8.22135 255.565 7.66927 255.586 7.47656H255.523L252.094 17H250.445ZM266.172 17L265.914 15.8672H265.82C265.565 16.2682 265.201 16.5833 264.727 16.8125C264.258 17.0417 263.721 17.1562 263.117 17.1562C262.07 17.1562 261.289 16.8958 260.773 16.375C260.258 15.8542 260 15.0651 260 14.0078V8.35938H261.852V13.6875C261.852 14.349 261.987 14.8464 262.258 15.1797C262.529 15.5078 262.953 15.6719 263.531 15.6719C264.302 15.6719 264.867 15.4427 265.227 14.9844C265.591 14.5208 265.773 13.7474 265.773 12.6641V8.35938H267.617V17H266.172ZM273.453 15.6719C273.901 15.6719 274.349 15.6016 274.797 15.4609V16.8438C274.594 16.9323 274.331 17.0052 274.008 17.0625C273.69 17.125 273.359 17.1562 273.016 17.1562C271.276 17.1562 270.406 16.2396 270.406 14.4062V9.75H269.227V8.9375L270.492 8.26562L271.117 6.4375H272.25V8.35938H274.711V9.75H272.25V14.375C272.25 14.8177 272.359 15.1458 272.578 15.3594C272.802 15.5677 273.094 15.6719 273.453 15.6719ZM279.75 15.6719C280.198 15.6719 280.646 15.6016 281.094 15.4609V16.8438C280.891 16.9323 280.628 17.0052 280.305 17.0625C279.987 17.125 279.656 17.1562 279.312 17.1562C277.573 17.1562 276.703 16.2396 276.703 14.4062V9.75H275.523V8.9375L276.789 8.26562L277.414 6.4375H278.547V8.35938H281.008V9.75H278.547V14.375C278.547 14.8177 278.656 15.1458 278.875 15.3594C279.099 15.5677 279.391 15.6719 279.75 15.6719ZM290.492 12.6641C290.492 14.0755 290.13 15.1771 289.406 15.9688C288.682 16.7604 287.674 17.1562 286.383 17.1562C285.576 17.1562 284.862 16.974 284.242 16.6094C283.622 16.2448 283.146 15.7214 282.812 15.0391C282.479 14.3568 282.312 13.5651 282.312 12.6641C282.312 11.263 282.672 10.1693 283.391 9.38281C284.109 8.59635 285.122 8.20312 286.43 8.20312C287.68 8.20312 288.669 8.60677 289.398 9.41406C290.128 10.2161 290.492 11.2995 290.492 12.6641ZM284.203 12.6641C284.203 14.6589 284.94 15.6562 286.414 15.6562C287.872 15.6562 288.602 14.6589 288.602 12.6641C288.602 10.6901 287.867 9.70312 286.398 9.70312C285.628 9.70312 285.068 9.95833 284.719 10.4688C284.375 10.9792 284.203 11.7109 284.203 12.6641ZM299.891 17H298.047V11.6719C298.047 11.0104 297.922 10.5182 297.672 10.1953C297.422 9.86719 297.031 9.70312 296.5 9.70312C295.792 9.70312 295.271 9.9349 294.938 10.3984C294.609 10.8568 294.445 11.6224 294.445 12.6953V17H292.609V8.35938H294.047L294.305 9.49219H294.398C294.638 9.08073 294.984 8.76302 295.438 8.53906C295.896 8.3151 296.398 8.20312 296.945 8.20312C298.273 8.20312 299.154 8.65625 299.586 9.5625H299.711C299.966 9.13542 300.326 8.80208 300.789 8.5625C301.253 8.32292 301.784 8.20312 302.383 8.20312C303.414 8.20312 304.164 8.46354 304.633 8.98438C305.107 9.50521 305.344 10.2995 305.344 11.3672V17H303.508V11.6719C303.508 11.0104 303.38 10.5182 303.125 10.1953C302.875 9.86719 302.484 9.70312 301.953 9.70312C301.24 9.70312 300.716 9.92708 300.383 10.375C300.055 10.8177 299.891 11.5 299.891 12.4219V17Z" fill="#333333"/>
<path d="M242.227 284H240.062L236.477 278.828L235.375 279.727V284H233.508V272.578H235.375V278.031C235.885 277.406 236.393 276.805 236.898 276.227L239.984 272.578H242.109C240.115 274.922 238.685 276.591 237.82 277.586L242.227 284ZM251.211 279.664C251.211 281.076 250.849 282.177 250.125 282.969C249.401 283.76 248.393 284.156 247.102 284.156C246.294 284.156 245.581 283.974 244.961 283.609C244.341 283.245 243.865 282.721 243.531 282.039C243.198 281.357 243.031 280.565 243.031 279.664C243.031 278.263 243.391 277.169 244.109 276.383C244.828 275.596 245.841 275.203 247.148 275.203C248.398 275.203 249.388 275.607 250.117 276.414C250.846 277.216 251.211 278.299 251.211 279.664ZM244.922 279.664C244.922 281.659 245.659 282.656 247.133 282.656C248.591 282.656 249.32 281.659 249.32 279.664C249.32 277.69 248.586 276.703 247.117 276.703C246.346 276.703 245.786 276.958 245.438 277.469C245.094 277.979 244.922 278.711 244.922 279.664ZM255.164 284H253.328V271.844H255.164V284ZM259.633 284H257.797V271.844H259.633V284ZM267.672 284L267.305 282.797H267.242C266.826 283.323 266.406 283.682 265.984 283.875C265.562 284.062 265.021 284.156 264.359 284.156C263.51 284.156 262.846 283.927 262.367 283.469C261.893 283.01 261.656 282.362 261.656 281.523C261.656 280.633 261.987 279.961 262.648 279.508C263.31 279.055 264.318 278.807 265.672 278.766L267.164 278.719V278.258C267.164 277.706 267.034 277.294 266.773 277.023C266.518 276.747 266.12 276.609 265.578 276.609C265.135 276.609 264.711 276.674 264.305 276.805C263.898 276.935 263.508 277.089 263.133 277.266L262.539 275.953C263.008 275.708 263.521 275.523 264.078 275.398C264.635 275.268 265.161 275.203 265.656 275.203C266.755 275.203 267.583 275.443 268.141 275.922C268.703 276.401 268.984 277.154 268.984 278.18V284H267.672ZM264.938 282.75C265.604 282.75 266.138 282.565 266.539 282.195C266.945 281.82 267.148 281.297 267.148 280.625V279.875L266.039 279.922C265.174 279.953 264.544 280.099 264.148 280.359C263.758 280.615 263.562 281.008 263.562 281.539C263.562 281.924 263.677 282.224 263.906 282.438C264.135 282.646 264.479 282.75 264.938 282.75ZM275.93 284.156C274.836 284.156 273.987 283.763 273.383 282.977H273.273C273.346 283.706 273.383 284.148 273.383 284.305V287.844H271.547V275.359H273.031C273.073 275.521 273.159 275.906 273.289 276.516H273.383C273.956 275.641 274.815 275.203 275.961 275.203C277.039 275.203 277.878 275.594 278.477 276.375C279.081 277.156 279.383 278.253 279.383 279.664C279.383 281.076 279.076 282.177 278.461 282.969C277.852 283.76 277.008 284.156 275.93 284.156ZM275.484 276.703C274.755 276.703 274.221 276.917 273.883 277.344C273.549 277.771 273.383 278.453 273.383 279.391V279.664C273.383 280.716 273.549 281.479 273.883 281.953C274.216 282.422 274.76 282.656 275.516 282.656C276.151 282.656 276.641 282.396 276.984 281.875C277.328 281.354 277.5 280.612 277.5 279.648C277.5 278.68 277.328 277.948 276.984 277.453C276.646 276.953 276.146 276.703 275.484 276.703ZM285.898 284.156C284.805 284.156 283.956 283.763 283.352 282.977H283.242C283.315 283.706 283.352 284.148 283.352 284.305V287.844H281.516V275.359H283C283.042 275.521 283.128 275.906 283.258 276.516H283.352C283.924 275.641 284.784 275.203 285.93 275.203C287.008 275.203 287.846 275.594 288.445 276.375C289.049 277.156 289.352 278.253 289.352 279.664C289.352 281.076 289.044 282.177 288.43 282.969C287.82 283.76 286.977 284.156 285.898 284.156ZM285.453 276.703C284.724 276.703 284.19 276.917 283.852 277.344C283.518 277.771 283.352 278.453 283.352 279.391V279.664C283.352 280.716 283.518 281.479 283.852 281.953C284.185 282.422 284.729 282.656 285.484 282.656C286.12 282.656 286.609 282.396 286.953 281.875C287.297 281.354 287.469 280.612 287.469 279.648C287.469 278.68 287.297 277.948 286.953 277.453C286.615 276.953 286.115 276.703 285.453 276.703ZM296.891 284L296.523 282.797H296.461C296.044 283.323 295.625 283.682 295.203 283.875C294.781 284.062 294.24 284.156 293.578 284.156C292.729 284.156 292.065 283.927 291.586 283.469C291.112 283.01 290.875 282.362 290.875 281.523C290.875 280.633 291.206 279.961 291.867 279.508C292.529 279.055 293.536 278.807 294.891 278.766L296.383 278.719V278.258C296.383 277.706 296.253 277.294 295.992 277.023C295.737 276.747 295.339 276.609 294.797 276.609C294.354 276.609 293.93 276.674 293.523 276.805C293.117 276.935 292.727 277.089 292.352 277.266L291.758 275.953C292.227 275.708 292.74 275.523 293.297 275.398C293.854 275.268 294.38 275.203 294.875 275.203C295.974 275.203 296.802 275.443 297.359 275.922C297.922 276.401 298.203 277.154 298.203 278.18V284H296.891ZM294.156 282.75C294.823 282.75 295.357 282.565 295.758 282.195C296.164 281.82 296.367 281.297 296.367 280.625V279.875L295.258 279.922C294.393 279.953 293.763 280.099 293.367 280.359C292.977 280.615 292.781 281.008 292.781 281.539C292.781 281.924 292.896 282.224 293.125 282.438C293.354 282.646 293.698 282.75 294.156 282.75ZM302.602 284H300.766V271.844H302.602V284ZM307.07 284H305.234V271.844H307.07V284ZM308.391 275.359H310.391L312.148 280.258C312.414 280.956 312.591 281.612 312.68 282.227H312.742C312.789 281.94 312.875 281.594 313 281.188C313.125 280.776 313.786 278.833 314.984 275.359H316.969L313.273 285.148C312.602 286.945 311.482 287.844 309.914 287.844C309.508 287.844 309.112 287.799 308.727 287.711V286.258C309.003 286.32 309.318 286.352 309.672 286.352C310.557 286.352 311.18 285.839 311.539 284.812L311.859 284L308.391 275.359Z" fill="#333333"/>
<path d="M133 239L137.516 229.211H131.578V227.594H139.477V228.875L134.984 239H133ZM143.227 234.438L144.266 233.141L146.875 230.359H148.992L145.516 234.07L149.211 239H147.055L144.281 235.211L143.273 236.039V239H141.453V226.844H143.273V232.773L143.18 234.438H143.227ZM157.891 239H156.047V233.672C156.047 233.01 155.922 232.518 155.672 232.195C155.422 231.867 155.031 231.703 154.5 231.703C153.792 231.703 153.271 231.935 152.938 232.398C152.609 232.857 152.445 233.622 152.445 234.695V239H150.609V230.359H152.047L152.305 231.492H152.398C152.638 231.081 152.984 230.763 153.438 230.539C153.896 230.315 154.398 230.203 154.945 230.203C156.273 230.203 157.154 230.656 157.586 231.562H157.711C157.966 231.135 158.326 230.802 158.789 230.562C159.253 230.323 159.784 230.203 160.383 230.203C161.414 230.203 162.164 230.464 162.633 230.984C163.107 231.505 163.344 232.299 163.344 233.367V239H161.508V233.672C161.508 233.01 161.38 232.518 161.125 232.195C160.875 231.867 160.484 231.703 159.953 231.703C159.24 231.703 158.716 231.927 158.383 232.375C158.055 232.818 157.891 233.5 157.891 234.422V239Z" fill="#333333"/>
<path d="M610.445 239H602.703V237.609L605.648 234.648C606.518 233.758 607.094 233.128 607.375 232.758C607.661 232.383 607.87 232.031 608 231.703C608.13 231.375 608.195 231.023 608.195 230.648C608.195 230.133 608.039 229.727 607.727 229.43C607.419 229.133 606.992 228.984 606.445 228.984C606.008 228.984 605.583 229.065 605.172 229.227C604.766 229.388 604.294 229.68 603.758 230.102L602.766 228.891C603.401 228.354 604.018 227.974 604.617 227.75C605.216 227.526 605.854 227.414 606.531 227.414C607.594 227.414 608.445 227.693 609.086 228.25C609.727 228.802 610.047 229.547 610.047 230.484C610.047 231 609.953 231.49 609.766 231.953C609.583 232.417 609.299 232.896 608.914 233.391C608.534 233.88 607.898 234.544 607.008 235.383L605.023 237.305V237.383H610.445V239ZM619.586 239H611.844V237.609L614.789 234.648C615.659 233.758 616.234 233.128 616.516 232.758C616.802 232.383 617.01 232.031 617.141 231.703C617.271 231.375 617.336 231.023 617.336 230.648C617.336 230.133 617.18 229.727 616.867 229.43C616.56 229.133 616.133 228.984 615.586 228.984C615.148 228.984 614.724 229.065 614.312 229.227C613.906 229.388 613.435 229.68 612.898 230.102L611.906 228.891C612.542 228.354 613.159 227.974 613.758 227.75C614.357 227.526 614.995 227.414 615.672 227.414C616.734 227.414 617.586 227.693 618.227 228.25C618.867 228.802 619.188 229.547 619.188 230.484C619.188 231 619.094 231.49 618.906 231.953C618.724 232.417 618.44 232.896 618.055 233.391C617.674 233.88 617.039 234.544 616.148 235.383L614.164 237.305V237.383H619.586V239ZM623.367 234.438L624.406 233.141L627.016 230.359H629.133L625.656 234.07L629.352 239H627.195L624.422 235.211L623.414 236.039V239H621.594V226.844H623.414V232.773L623.32 234.438H623.367ZM638.031 239H636.188V233.672C636.188 233.01 636.062 232.518 635.812 232.195C635.562 231.867 635.172 231.703 634.641 231.703C633.932 231.703 633.411 231.935 633.078 232.398C632.75 232.857 632.586 233.622 632.586 234.695V239H630.75V230.359H632.188L632.445 231.492H632.539C632.779 231.081 633.125 230.763 633.578 230.539C634.036 230.315 634.539 230.203 635.086 230.203C636.414 230.203 637.294 230.656 637.727 231.562H637.852C638.107 231.135 638.466 230.802 638.93 230.562C639.393 230.323 639.924 230.203 640.523 230.203C641.555 230.203 642.305 230.464 642.773 230.984C643.247 231.505 643.484 232.299 643.484 233.367V239H641.648V233.672C641.648 233.01 641.521 232.518 641.266 232.195C641.016 231.867 640.625 231.703 640.094 231.703C639.38 231.703 638.857 231.927 638.523 232.375C638.195 232.818 638.031 233.5 638.031 234.422V239Z" fill="#333333"/>
<path d="M290.094 142H288.258V134.625C288.258 133.745 288.279 133.047 288.32 132.531C288.201 132.656 288.052 132.794 287.875 132.945C287.703 133.096 287.12 133.576 286.125 134.383L285.203 133.219L288.562 130.578H290.094V142ZM295.141 142L299.656 132.211H293.719V130.594H301.617V131.875L297.125 142H295.141ZM305.367 137.438L306.406 136.141L309.016 133.359H311.133L307.656 137.07L311.352 142H309.195L306.422 138.211L305.414 139.039V142H303.594V129.844H305.414V135.773L305.32 137.438H305.367ZM320.031 142H318.188V136.672C318.188 136.01 318.062 135.518 317.812 135.195C317.562 134.867 317.172 134.703 316.641 134.703C315.932 134.703 315.411 134.935 315.078 135.398C314.75 135.857 314.586 136.622 314.586 137.695V142H312.75V133.359H314.188L314.445 134.492H314.539C314.779 134.081 315.125 133.763 315.578 133.539C316.036 133.315 316.539 133.203 317.086 133.203C318.414 133.203 319.294 133.656 319.727 134.562H319.852C320.107 134.135 320.466 133.802 320.93 133.562C321.393 133.323 321.924 133.203 322.523 133.203C323.555 133.203 324.305 133.464 324.773 133.984C325.247 134.505 325.484 135.299 325.484 136.367V142H323.648V136.672C323.648 136.01 323.521 135.518 323.266 135.195C323.016 134.867 322.625 134.703 322.094 134.703C321.38 134.703 320.857 134.927 320.523 135.375C320.195 135.818 320.031 136.5 320.031 137.422V142Z" fill="#333333"/>
<circle cx="18" cy="245" r="18" fill="#333333"/>
<circle cx="993" cy="245" r="18" fill="#333333"/>
<circle cx="277" cy="40" r="18" fill="#333333"/>
<line x1="29" y1="246.5" x2="979" y2="246.5" stroke="#333333"/>
<line x1="277.5" y1="44" x2="277.5" y2="233" stroke="#333333"/>
<circle cx="277" cy="247" r="18" fill="#09B438"/>
<path d="M740.906 77.1172C740.906 76.4297 740.953 75.7578 741.047 75.1016C741.146 74.4453 741.31 73.8359 741.539 73.2734C741.768 72.7057 742.081 72.2083 742.477 71.7812C742.872 71.3542 743.365 71.0208 743.953 70.7812C744.547 70.5365 745.258 70.4141 746.086 70.4141C746.32 70.4141 746.573 70.4271 746.844 70.4531C747.115 70.474 747.339 70.5104 747.516 70.5625V71.6797C747.323 71.612 747.102 71.5625 746.852 71.5312C746.607 71.5 746.359 71.4844 746.109 71.4844C745.141 71.4844 744.378 71.6953 743.82 72.1172C743.268 72.5391 742.87 73.112 742.625 73.8359C742.38 74.5547 742.24 75.3646 742.203 76.2656H742.289C742.451 76.0052 742.656 75.7708 742.906 75.5625C743.156 75.349 743.458 75.1797 743.812 75.0547C744.172 74.9297 744.589 74.8672 745.062 74.8672C745.729 74.8672 746.31 75.0026 746.805 75.2734C747.305 75.5443 747.69 75.9375 747.961 76.4531C748.237 76.9688 748.375 77.5938 748.375 78.3281C748.375 79.1146 748.229 79.7943 747.938 80.3672C747.646 80.9401 747.229 81.3828 746.688 81.6953C746.151 82.0026 745.51 82.1562 744.766 82.1562C744.208 82.1562 743.695 82.0495 743.227 81.8359C742.758 81.6224 742.349 81.3047 742 80.8828C741.656 80.4609 741.388 79.9375 741.195 79.3125C741.003 78.6823 740.906 77.9505 740.906 77.1172ZM744.75 81.0625C745.458 81.0625 746.026 80.8359 746.453 80.3828C746.88 79.9297 747.094 79.2448 747.094 78.3281C747.094 77.5781 746.904 76.9844 746.523 76.5469C746.143 76.1094 745.57 75.8906 744.805 75.8906C744.284 75.8906 743.831 76 743.445 76.2188C743.06 76.4323 742.76 76.7031 742.547 77.0312C742.333 77.3594 742.227 77.6927 742.227 78.0312C742.227 78.375 742.276 78.724 742.375 79.0781C742.479 79.4323 742.635 79.7604 742.844 80.0625C743.052 80.3646 743.315 80.6068 743.633 80.7891C743.951 80.9714 744.323 81.0625 744.75 81.0625ZM751.422 82L756.109 71.7656H749.883V70.5781H757.5V71.5781L752.844 82H751.422ZM772.266 82H770.695L766.578 76.4453L765.359 77.5391V82H764.031V70.5781H765.359V76.2734C765.656 75.9349 765.961 75.599 766.273 75.2656C766.586 74.9271 766.896 74.5859 767.203 74.2422L770.539 70.5781H772.094L767.547 75.5312L772.266 82ZM782.93 73.2812C783.872 73.2812 784.583 73.5286 785.062 74.0234C785.542 74.513 785.781 75.3021 785.781 76.3906V82H784.5V76.4531C784.5 75.7604 784.349 75.2422 784.047 74.8984C783.75 74.5495 783.307 74.375 782.719 74.375C781.891 74.375 781.289 74.6146 780.914 75.0938C780.539 75.5729 780.352 76.2786 780.352 77.2109V82H779.062V76.4531C779.062 75.9896 778.995 75.6042 778.859 75.2969C778.729 74.9896 778.531 74.7604 778.266 74.6094C778.005 74.4531 777.674 74.375 777.273 74.375C776.706 74.375 776.25 74.4922 775.906 74.7266C775.562 74.9609 775.312 75.3099 775.156 75.7734C775.005 76.2318 774.93 76.7969 774.93 77.4688V82H773.633V73.4375H774.68L774.875 74.6484H774.945C775.117 74.3516 775.333 74.1016 775.594 73.8984C775.854 73.6953 776.146 73.5417 776.469 73.4375C776.792 73.3333 777.135 73.2812 777.5 73.2812C778.151 73.2812 778.695 73.4036 779.133 73.6484C779.576 73.888 779.896 74.2552 780.094 74.75H780.164C780.445 74.2552 780.831 73.888 781.32 73.6484C781.81 73.4036 782.346 73.2812 782.93 73.2812Z" fill="black"/>
<path d="M747.852 127.242C747.852 127.753 747.753 128.195 747.555 128.57C747.357 128.945 747.081 129.253 746.727 129.492C746.372 129.727 745.956 129.891 745.477 129.984V130.047C746.383 130.161 747.062 130.453 747.516 130.922C747.974 131.391 748.203 132.005 748.203 132.766C748.203 133.427 748.047 134.013 747.734 134.523C747.427 135.034 746.953 135.435 746.312 135.727C745.677 136.013 744.862 136.156 743.867 136.156C743.263 136.156 742.703 136.107 742.188 136.008C741.677 135.914 741.188 135.755 740.719 135.531V134.312C741.193 134.547 741.708 134.732 742.266 134.867C742.823 134.997 743.362 135.062 743.883 135.062C744.924 135.062 745.677 134.857 746.141 134.445C746.604 134.029 746.836 133.461 746.836 132.742C746.836 132.247 746.706 131.849 746.445 131.547C746.19 131.24 745.82 131.016 745.336 130.875C744.857 130.729 744.279 130.656 743.602 130.656H742.461V129.547H743.609C744.229 129.547 744.755 129.456 745.188 129.273C745.62 129.091 745.948 128.836 746.172 128.508C746.401 128.174 746.516 127.781 746.516 127.328C746.516 126.75 746.323 126.305 745.938 125.992C745.552 125.674 745.029 125.516 744.367 125.516C743.961 125.516 743.591 125.557 743.258 125.641C742.924 125.724 742.612 125.839 742.32 125.984C742.029 126.13 741.737 126.299 741.445 126.492L740.789 125.602C741.206 125.279 741.714 125 742.312 124.766C742.911 124.531 743.591 124.414 744.352 124.414C745.518 124.414 746.393 124.68 746.977 125.211C747.56 125.742 747.852 126.419 747.852 127.242ZM753.555 129.016C754.331 129.016 755.005 129.148 755.578 129.414C756.151 129.674 756.594 130.055 756.906 130.555C757.224 131.055 757.383 131.661 757.383 132.375C757.383 133.156 757.214 133.831 756.875 134.398C756.536 134.961 756.049 135.396 755.414 135.703C754.779 136.005 754.018 136.156 753.133 136.156C752.539 136.156 751.987 136.104 751.477 136C750.966 135.896 750.536 135.74 750.188 135.531V134.297C750.568 134.526 751.029 134.708 751.57 134.844C752.112 134.979 752.638 135.047 753.148 135.047C753.727 135.047 754.232 134.956 754.664 134.773C755.102 134.586 755.44 134.305 755.68 133.93C755.924 133.549 756.047 133.073 756.047 132.5C756.047 131.74 755.812 131.154 755.344 130.742C754.88 130.326 754.146 130.117 753.141 130.117C752.818 130.117 752.464 130.143 752.078 130.195C751.693 130.247 751.375 130.305 751.125 130.367L750.469 129.938L750.906 124.578H756.586V125.766H752.016L751.727 129.211C751.924 129.169 752.18 129.128 752.492 129.086C752.805 129.039 753.159 129.016 753.555 129.016ZM772.266 136H770.695L766.578 130.445L765.359 131.539V136H764.031V124.578H765.359V130.273C765.656 129.935 765.961 129.599 766.273 129.266C766.586 128.927 766.896 128.586 767.203 128.242L770.539 124.578H772.094L767.547 129.531L772.266 136ZM782.93 127.281C783.872 127.281 784.583 127.529 785.062 128.023C785.542 128.513 785.781 129.302 785.781 130.391V136H784.5V130.453C784.5 129.76 784.349 129.242 784.047 128.898C783.75 128.549 783.307 128.375 782.719 128.375C781.891 128.375 781.289 128.615 780.914 129.094C780.539 129.573 780.352 130.279 780.352 131.211V136H779.062V130.453C779.062 129.99 778.995 129.604 778.859 129.297C778.729 128.99 778.531 128.76 778.266 128.609C778.005 128.453 777.674 128.375 777.273 128.375C776.706 128.375 776.25 128.492 775.906 128.727C775.562 128.961 775.312 129.31 775.156 129.773C775.005 130.232 774.93 130.797 774.93 131.469V136H773.633V127.438H774.68L774.875 128.648H774.945C775.117 128.352 775.333 128.102 775.594 127.898C775.854 127.695 776.146 127.542 776.469 127.438C776.792 127.333 777.135 127.281 777.5 127.281C778.151 127.281 778.695 127.404 779.133 127.648C779.576 127.888 779.896 128.255 780.094 128.75H780.164C780.445 128.255 780.831 127.888 781.32 127.648C781.81 127.404 782.346 127.281 782.93 127.281Z" fill="black"/>
<path d="M276.601 235C272.677 235 269.461 238.207 269.461 242.12C269.461 243.636 269.945 245.045 270.765 246.204L275.73 254.787C276.425 255.695 276.888 255.523 277.466 254.739L282.942 245.419C283.053 245.219 283.139 245.006 283.215 244.789C283.553 243.963 283.741 243.062 283.741 242.12C283.741 238.207 280.526 235 276.601 235ZM276.601 238.336C278.715 238.336 280.395 240.013 280.395 242.12C280.395 244.227 278.715 245.903 276.601 245.903C274.488 245.903 272.807 244.227 272.807 242.12C272.807 240.013 274.488 238.336 276.601 238.336Z" fill="white"/>
<path d="M281.139 246.738L281.127 246.768C281.131 246.759 281.133 246.75 281.137 246.74C281.138 246.74 281.138 246.739 281.139 246.738Z" fill="white"/>
<path d="M272.761 251.573C269.371 252.052 267 253.198 267 254.885C267 257.158 270.962 259 276.6 259C282.238 259 286.2 257.158 286.2 254.885C286.2 253.198 283.829 252.052 280.439 251.573C280.283 251.84 280.126 252.106 279.969 252.373C282.524 252.727 284.28 253.472 284.28 254.337C284.28 255.549 280.842 256.531 276.6 256.531C272.358 256.531 268.92 255.549 268.92 254.337C268.92 253.475 270.664 252.731 273.227 252.375C273.072 252.108 272.916 251.841 272.761 251.573Z" fill="white"/>
<path d="M417.438 76.7592C418.188 76.0096 418.787 75.5599 419.237 75.1102C421.635 72.7118 424.034 68.9642 422.535 67.4651C421.036 65.9661 417.438 68.3646 415.04 70.763C414.59 71.2127 414.14 71.8123 413.391 72.5619L402.897 67.7649C401.848 67.3152 400.649 67.4651 399.899 68.2146L399 68.9642L408.894 77.5087C406.945 79.9071 404.846 82.1557 403.797 83.5048L402.148 82.6054C401.398 82.1557 400.349 82.1557 399.75 82.9052L399.3 83.3549L403.497 86.5029L406.495 90.7002L406.945 90.2505C407.545 89.6509 407.694 88.6015 407.245 87.852L406.495 86.2031C407.844 85.1538 410.093 83.0551 412.491 81.1064L421.036 91L421.785 90.2505C422.535 89.501 422.685 88.3017 422.235 87.2524L417.438 76.7592Z" fill="#333333"/>
<path d="M410.105 116C405.053 116 400 116.632 400 121.053V133.053C400 134.225 400.466 135.35 401.295 136.179C402.124 137.008 403.249 137.474 404.421 137.474L402.526 139.368V140H405.343L407.869 137.474H412.632L415.158 140H417.684V139.368L415.789 137.474C416.962 137.474 418.087 137.008 418.916 136.179C419.745 135.35 420.211 134.225 420.211 133.053V121.053C420.211 116.632 415.688 116 410.105 116ZM404.421 134.947C403.919 134.947 403.437 134.748 403.081 134.392C402.726 134.037 402.526 133.555 402.526 133.053C402.526 132.55 402.726 132.068 403.081 131.713C403.437 131.358 403.919 131.158 404.421 131.158C404.924 131.158 405.406 131.358 405.761 131.713C406.116 132.068 406.316 132.55 406.316 133.053C406.316 133.555 406.116 134.037 405.761 134.392C405.406 134.748 404.924 134.947 404.421 134.947ZM408.842 126.105H402.526V121.053H408.842V126.105ZM411.368 126.105V121.053H417.684V126.105H411.368ZM415.789 134.947C415.287 134.947 414.805 134.748 414.45 134.392C414.094 134.037 413.895 133.555 413.895 133.053C413.895 132.55 414.094 132.068 414.45 131.713C414.805 131.358 415.287 131.158 415.789 131.158C416.292 131.158 416.774 131.358 417.129 131.713C417.485 132.068 417.684 132.55 417.684 133.053C417.684 133.555 417.485 134.037 417.129 134.392C416.774 134.748 416.292 134.947 415.789 134.947Z" fill="#333333"/>
</svg>
