<svg width="305" height="109" viewBox="0 0 305 109" fill="none" xmlns="http://www.w3.org/2000/svg">
<circle cx="10" cy="84" r="6" fill="#333333"/>
<circle cx="278" cy="84" r="6" fill="#333333"/>
<circle cx="93" cy="24" r="6" fill="#333333"/>
<line x1="10" y1="84" x2="278" y2="84" stroke="#333333" stroke-width="2"/>
<line x1="93" y1="27" x2="93" y2="81" stroke="#333333" stroke-width="2"/>
<path d="M5.66406 68.9414C5.66406 69.6641 5.41667 70.2207 4.92188 70.6113C4.43034 70.9987 3.72559 71.1924 2.80762 71.1924H1.96777V74H1.1377V66.8613H2.98828C4.77214 66.8613 5.66406 67.5547 5.66406 68.9414ZM1.96777 70.4795H2.71484C3.45052 70.4795 3.98275 70.3607 4.31152 70.123C4.6403 69.8854 4.80469 69.5046 4.80469 68.9805C4.80469 68.5085 4.65007 68.1569 4.34082 67.9258C4.03158 67.6947 3.5498 67.5791 2.89551 67.5791H1.96777V70.4795ZM10.332 74L10.1709 73.2383H10.1318C9.86491 73.5736 9.59798 73.8014 9.33105 73.9219C9.06738 74.0391 8.73698 74.0977 8.33984 74.0977C7.80924 74.0977 7.39258 73.9609 7.08984 73.6875C6.79036 73.4141 6.64062 73.0251 6.64062 72.5205C6.64062 71.4398 7.50488 70.8734 9.2334 70.8213L10.1416 70.792V70.46C10.1416 70.04 10.0505 69.7308 9.86816 69.5322C9.68913 69.3304 9.40104 69.2295 9.00391 69.2295C8.55794 69.2295 8.05339 69.3662 7.49023 69.6396L7.24121 69.0195C7.50488 68.8763 7.79297 68.764 8.10547 68.6826C8.42122 68.6012 8.73698 68.5605 9.05273 68.5605C9.69076 68.5605 10.1628 68.7021 10.4688 68.9854C10.778 69.2686 10.9326 69.7227 10.9326 70.3477V74H10.332ZM8.50098 73.4287C9.00553 73.4287 9.40104 73.2904 9.6875 73.0137C9.97721 72.737 10.1221 72.3496 10.1221 71.8516V71.3682L9.31152 71.4023C8.66699 71.4251 8.2015 71.526 7.91504 71.7051C7.63184 71.8809 7.49023 72.1559 7.49023 72.5303C7.49023 72.8232 7.57812 73.0462 7.75391 73.1992C7.93294 73.3522 8.18197 73.4287 8.50098 73.4287ZM13.418 74H12.6074V66.4023H13.418V74ZM18.4277 74L18.2666 73.2383H18.2275C17.9606 73.5736 17.6937 73.8014 17.4268 73.9219C17.1631 74.0391 16.8327 74.0977 16.4355 74.0977C15.9049 74.0977 15.4883 73.9609 15.1855 73.6875C14.8861 73.4141 14.7363 73.0251 14.7363 72.5205C14.7363 71.4398 15.6006 70.8734 17.3291 70.8213L18.2373 70.792V70.46C18.2373 70.04 18.1462 69.7308 17.9639 69.5322C17.7848 69.3304 17.4967 69.2295 17.0996 69.2295C16.6536 69.2295 16.1491 69.3662 15.5859 69.6396L15.3369 69.0195C15.6006 68.8763 15.8887 68.764 16.2012 68.6826C16.5169 68.6012 16.8327 68.5605 17.1484 68.5605C17.7865 68.5605 18.2585 68.7021 18.5645 68.9854C18.8737 69.2686 19.0283 69.7227 19.0283 70.3477V74H18.4277ZM16.5967 73.4287C17.1012 73.4287 17.4967 73.2904 17.7832 73.0137C18.0729 72.737 18.2178 72.3496 18.2178 71.8516V71.3682L17.4072 71.4023C16.7627 71.4251 16.2972 71.526 16.0107 71.7051C15.7275 71.8809 15.5859 72.1559 15.5859 72.5303C15.5859 72.8232 15.6738 73.0462 15.8496 73.1992C16.0286 73.3522 16.2777 73.4287 16.5967 73.4287Z" fill="#333333"/>
<path d="M44.75 74L47.709 67.6084H43.8174V66.8613H48.5684V67.5107L45.6484 74H44.75ZM50.7412 71.2607C50.8812 71.0622 51.0944 70.8018 51.3809 70.4795L53.1094 68.6484H54.0713L51.9033 70.9287L54.2227 74H53.2412L51.3516 71.4707L50.7412 71.998V74H49.9404V66.4023H50.7412V70.4307C50.7412 70.6097 50.7282 70.8864 50.7021 71.2607H50.7412ZM62.0156 74V70.5186C62.0156 70.0921 61.9245 69.7731 61.7422 69.5615C61.5599 69.3467 61.2767 69.2393 60.8926 69.2393C60.388 69.2393 60.0153 69.3841 59.7744 69.6738C59.5335 69.9635 59.4131 70.4095 59.4131 71.0117V74H58.6025V70.5186C58.6025 70.0921 58.5114 69.7731 58.3291 69.5615C58.1468 69.3467 57.862 69.2393 57.4746 69.2393C56.9668 69.2393 56.5941 69.3923 56.3564 69.6982C56.1221 70.001 56.0049 70.499 56.0049 71.1924V74H55.1943V68.6484H55.8535L55.9854 69.3809H56.0244C56.1774 69.1204 56.3923 68.917 56.6689 68.7705C56.9489 68.624 57.2614 68.5508 57.6064 68.5508C58.443 68.5508 58.9899 68.8535 59.2471 69.459H59.2861C59.4456 69.179 59.6768 68.9577 59.9795 68.7949C60.2822 68.6322 60.6273 68.5508 61.0146 68.5508C61.6201 68.5508 62.0726 68.707 62.3721 69.0195C62.6748 69.3288 62.8262 69.8252 62.8262 70.5088V74H62.0156Z" fill="#333333"/>
<path d="M164.678 74H159.985V73.3018L161.865 71.4121C162.438 70.8327 162.816 70.4193 162.998 70.1719C163.18 69.9245 163.317 69.6836 163.408 69.4492C163.499 69.2148 163.545 68.9626 163.545 68.6924C163.545 68.3115 163.429 68.0104 163.198 67.7891C162.967 67.5645 162.646 67.4521 162.236 67.4521C161.94 67.4521 161.659 67.501 161.392 67.5986C161.128 67.6963 160.833 67.8737 160.508 68.1309L160.078 67.5791C160.736 67.0322 161.452 66.7588 162.227 66.7588C162.897 66.7588 163.423 66.9313 163.804 67.2764C164.185 67.6182 164.375 68.0788 164.375 68.6582C164.375 69.1107 164.248 69.5583 163.994 70.001C163.74 70.4437 163.265 71.0036 162.568 71.6807L161.006 73.209V73.248H164.678V74ZM170.4 74H165.708V73.3018L167.588 71.4121C168.161 70.8327 168.538 70.4193 168.721 70.1719C168.903 69.9245 169.04 69.6836 169.131 69.4492C169.222 69.2148 169.268 68.9626 169.268 68.6924C169.268 68.3115 169.152 68.0104 168.921 67.7891C168.69 67.5645 168.369 67.4521 167.959 67.4521C167.663 67.4521 167.381 67.501 167.114 67.5986C166.851 67.6963 166.556 67.8737 166.23 68.1309L165.801 67.5791C166.458 67.0322 167.174 66.7588 167.949 66.7588C168.62 66.7588 169.146 66.9313 169.526 67.2764C169.907 67.6182 170.098 68.0788 170.098 68.6582C170.098 69.1107 169.971 69.5583 169.717 70.001C169.463 70.4437 168.988 71.0036 168.291 71.6807L166.729 73.209V73.248H170.4V74ZM172.603 71.2607C172.743 71.0622 172.956 70.8018 173.242 70.4795L174.971 68.6484H175.933L173.765 70.9287L176.084 74H175.103L173.213 71.4707L172.603 71.998V74H171.802V66.4023H172.603V70.4307C172.603 70.6097 172.59 70.8864 172.563 71.2607H172.603ZM183.877 74V70.5186C183.877 70.0921 183.786 69.7731 183.604 69.5615C183.421 69.3467 183.138 69.2393 182.754 69.2393C182.249 69.2393 181.877 69.3841 181.636 69.6738C181.395 69.9635 181.274 70.4095 181.274 71.0117V74H180.464V70.5186C180.464 70.0921 180.373 69.7731 180.19 69.5615C180.008 69.3467 179.723 69.2393 179.336 69.2393C178.828 69.2393 178.455 69.3923 178.218 69.6982C177.983 70.001 177.866 70.499 177.866 71.1924V74H177.056V68.6484H177.715L177.847 69.3809H177.886C178.039 69.1204 178.254 68.917 178.53 68.7705C178.81 68.624 179.123 68.5508 179.468 68.5508C180.304 68.5508 180.851 68.8535 181.108 69.459H181.147C181.307 69.179 181.538 68.9577 181.841 68.7949C182.144 68.6322 182.489 68.5508 182.876 68.5508C183.481 68.5508 183.934 68.707 184.233 69.0195C184.536 69.3288 184.688 69.8252 184.688 70.5088V74H183.877Z" fill="#333333"/>
<path d="M98.9883 58H98.1973V52.9121C98.1973 52.4889 98.2103 52.0885 98.2363 51.7109C98.168 51.7793 98.0915 51.8509 98.0068 51.9258C97.9222 52.0007 97.5348 52.318 96.8447 52.8779L96.415 52.3213L98.3047 50.8613H98.9883V58ZM102.611 58L105.57 51.6084H101.679V50.8613H106.43V51.5107L103.51 58H102.611ZM108.603 55.2607C108.743 55.0622 108.956 54.8018 109.242 54.4795L110.971 52.6484H111.933L109.765 54.9287L112.084 58H111.103L109.213 55.4707L108.603 55.998V58H107.802V50.4023H108.603V54.4307C108.603 54.6097 108.59 54.8864 108.563 55.2607H108.603ZM119.877 58V54.5186C119.877 54.0921 119.786 53.7731 119.604 53.5615C119.421 53.3467 119.138 53.2393 118.754 53.2393C118.249 53.2393 117.877 53.3841 117.636 53.6738C117.395 53.9635 117.274 54.4095 117.274 55.0117V58H116.464V54.5186C116.464 54.0921 116.373 53.7731 116.19 53.5615C116.008 53.3467 115.723 53.2393 115.336 53.2393C114.828 53.2393 114.455 53.3923 114.218 53.6982C113.983 54.001 113.866 54.499 113.866 55.1924V58H113.056V52.6484H113.715L113.847 53.3809H113.886C114.039 53.1204 114.254 52.917 114.53 52.7705C114.81 52.624 115.123 52.5508 115.468 52.5508C116.304 52.5508 116.851 52.8535 117.108 53.459H117.147C117.307 53.179 117.538 52.9577 117.841 52.7949C118.144 52.6322 118.489 52.5508 118.876 52.5508C119.481 52.5508 119.934 52.707 120.233 53.0195C120.536 53.3288 120.688 53.8252 120.688 54.5088V58H119.877Z" fill="#333333"/>
<path d="M249.348 74H248.518V67.5986H246.257V66.8613H251.608V67.5986H249.348V74ZM256.228 74V70.5381C256.228 70.1019 256.128 69.7764 255.93 69.5615C255.731 69.3467 255.42 69.2393 254.997 69.2393C254.434 69.2393 254.022 69.3923 253.762 69.6982C253.505 70.0042 253.376 70.5055 253.376 71.2021V74H252.565V66.4023H253.376V68.7021C253.376 68.9788 253.363 69.2083 253.337 69.3906H253.386C253.545 69.1335 253.771 68.9316 254.064 68.7852C254.361 68.6354 254.698 68.5605 255.075 68.5605C255.729 68.5605 256.219 68.7168 256.545 69.0293C256.874 69.3385 257.038 69.8317 257.038 70.5088V74H256.228ZM263.327 71.3193C263.327 72.1917 263.107 72.8737 262.668 73.3652C262.229 73.8535 261.621 74.0977 260.847 74.0977C260.368 74.0977 259.943 73.9854 259.572 73.7607C259.201 73.5361 258.915 73.2139 258.713 72.7939C258.511 72.374 258.41 71.8825 258.41 71.3193C258.41 70.4469 258.628 69.7682 259.064 69.2832C259.501 68.7949 260.106 68.5508 260.881 68.5508C261.63 68.5508 262.224 68.7998 262.663 69.2979C263.106 69.7959 263.327 70.4697 263.327 71.3193ZM259.25 71.3193C259.25 72.0029 259.387 72.5238 259.66 72.8818C259.934 73.2399 260.336 73.4189 260.866 73.4189C261.397 73.4189 261.799 73.2415 262.072 72.8867C262.349 72.5286 262.487 72.0062 262.487 71.3193C262.487 70.639 262.349 70.123 262.072 69.7715C261.799 69.4167 261.394 69.2393 260.856 69.2393C260.326 69.2393 259.925 69.4134 259.655 69.7617C259.385 70.11 259.25 70.6292 259.25 71.3193ZM268.396 73.2822H268.352C267.977 73.8258 267.417 74.0977 266.672 74.0977C265.972 74.0977 265.427 73.8584 265.036 73.3799C264.649 72.9014 264.455 72.221 264.455 71.3389C264.455 70.4567 264.65 69.7715 265.041 69.2832C265.432 68.7949 265.975 68.5508 266.672 68.5508C267.398 68.5508 267.954 68.8145 268.342 69.3418H268.405L268.371 68.9561L268.352 68.5801V66.4023H269.162V74H268.503L268.396 73.2822ZM266.774 73.4189C267.328 73.4189 267.728 73.2692 267.976 72.9697C268.226 72.667 268.352 72.1803 268.352 71.5098V71.3389C268.352 70.5804 268.225 70.04 267.971 69.7178C267.72 69.3923 267.318 69.2295 266.765 69.2295C266.289 69.2295 265.925 69.415 265.671 69.7861C265.42 70.154 265.295 70.6748 265.295 71.3486C265.295 72.0322 265.42 72.5482 265.671 72.8965C265.922 73.2448 266.289 73.4189 266.774 73.4189ZM271.647 68.6484V72.1201C271.647 72.5563 271.747 72.8818 271.945 73.0967C272.144 73.3115 272.455 73.4189 272.878 73.4189C273.438 73.4189 273.846 73.266 274.104 72.96C274.364 72.654 274.494 72.1543 274.494 71.4609V68.6484H275.305V74H274.636L274.519 73.2822H274.475C274.309 73.5459 274.077 73.7477 273.781 73.8877C273.488 74.0277 273.153 74.0977 272.775 74.0977C272.124 74.0977 271.636 73.943 271.311 73.6338C270.988 73.3245 270.827 72.8298 270.827 72.1494V68.6484H271.647ZM279.519 74.0977C279.17 74.0977 278.851 74.0342 278.562 73.9072C278.275 73.777 278.034 73.5785 277.839 73.3115H277.78C277.819 73.624 277.839 73.9202 277.839 74.2002V76.4023H277.028V68.6484H277.688L277.8 69.3809H277.839C278.047 69.0879 278.29 68.8763 278.566 68.7461C278.843 68.6159 279.16 68.5508 279.519 68.5508C280.228 68.5508 280.775 68.7933 281.159 69.2783C281.547 69.7633 281.74 70.4437 281.74 71.3193C281.74 72.1982 281.543 72.8818 281.149 73.3701C280.759 73.8551 280.215 74.0977 279.519 74.0977ZM279.401 69.2393C278.854 69.2393 278.459 69.3906 278.215 69.6934C277.971 69.9961 277.845 70.4779 277.839 71.1387V71.3193C277.839 72.0713 277.964 72.61 278.215 72.9355C278.465 73.2578 278.868 73.4189 279.421 73.4189C279.883 73.4189 280.244 73.2318 280.505 72.8574C280.769 72.4831 280.9 71.9671 280.9 71.3096C280.9 70.6423 280.769 70.1312 280.505 69.7764C280.244 69.4183 279.877 69.2393 279.401 69.2393ZM283.923 68.6484V72.1201C283.923 72.5563 284.022 72.8818 284.221 73.0967C284.419 73.3115 284.73 73.4189 285.153 73.4189C285.713 73.4189 286.122 73.266 286.379 72.96C286.639 72.654 286.77 72.1543 286.77 71.4609V68.6484H287.58V74H286.911L286.794 73.2822H286.75C286.584 73.5459 286.353 73.7477 286.057 73.8877C285.764 74.0277 285.428 74.0977 285.051 74.0977C284.4 74.0977 283.911 73.943 283.586 73.6338C283.264 73.3245 283.103 72.8298 283.103 72.1494V68.6484H283.923ZM292.727 74H288.845V73.4482L291.765 69.2783H289.025V68.6484H292.653V69.2783L289.772 73.3701H292.727V74ZM297.644 74V70.5381C297.644 70.1019 297.544 69.7764 297.346 69.5615C297.147 69.3467 296.836 69.2393 296.413 69.2393C295.85 69.2393 295.438 69.3923 295.178 69.6982C294.921 70.0042 294.792 70.5055 294.792 71.2021V74H293.981V66.4023H294.792V68.7021C294.792 68.9788 294.779 69.2083 294.753 69.3906H294.802C294.961 69.1335 295.188 68.9316 295.48 68.7852C295.777 68.6354 296.114 68.5605 296.491 68.5605C297.146 68.5605 297.635 68.7168 297.961 69.0293C298.29 69.3385 298.454 69.8317 298.454 70.5088V74H297.644ZM303.415 74L303.254 73.2383H303.215C302.948 73.5736 302.681 73.8014 302.414 73.9219C302.15 74.0391 301.82 74.0977 301.423 74.0977C300.892 74.0977 300.476 73.9609 300.173 73.6875C299.873 73.4141 299.724 73.0251 299.724 72.5205C299.724 71.4398 300.588 70.8734 302.316 70.8213L303.225 70.792V70.46C303.225 70.04 303.133 69.7308 302.951 69.5322C302.772 69.3304 302.484 69.2295 302.087 69.2295C301.641 69.2295 301.136 69.3662 300.573 69.6396L300.324 69.0195C300.588 68.8763 300.876 68.764 301.188 68.6826C301.504 68.6012 301.82 68.5605 302.136 68.5605C302.774 68.5605 303.246 68.7021 303.552 68.9854C303.861 69.2686 304.016 69.7227 304.016 70.3477V74H303.415ZM301.584 73.4287C302.089 73.4287 302.484 73.2904 302.771 73.0137C303.06 72.737 303.205 72.3496 303.205 71.8516V71.3682L302.395 71.4023C301.75 71.4251 301.285 71.526 300.998 71.7051C300.715 71.8809 300.573 72.1559 300.573 72.5303C300.573 72.8232 300.661 73.0462 300.837 73.1992C301.016 73.3522 301.265 73.4287 301.584 73.4287Z" fill="#333333"/>
<path d="M78.3418 10L75.9199 3.67188H75.8809C75.9264 4.17318 75.9492 4.76888 75.9492 5.45898V10H75.1826V2.86133H76.4326L78.6934 8.75H78.7324L81.0127 2.86133H82.2529V10H81.4229V5.40039C81.4229 4.87305 81.4456 4.30013 81.4912 3.68164H81.4521L79.0107 10H78.3418ZM84.8555 4.64844V8.12012C84.8555 8.55632 84.9548 8.88184 85.1533 9.09668C85.3519 9.31152 85.6628 9.41895 86.0859 9.41895C86.6458 9.41895 87.0544 9.26595 87.3115 8.95996C87.5719 8.65397 87.7021 8.1543 87.7021 7.46094V4.64844H88.5127V10H87.8438L87.7266 9.28223H87.6826C87.5166 9.5459 87.2855 9.74772 86.9893 9.8877C86.6963 10.0277 86.361 10.0977 85.9834 10.0977C85.3324 10.0977 84.8441 9.94303 84.5186 9.63379C84.1963 9.32454 84.0352 8.82975 84.0352 8.14941V4.64844H84.8555ZM91.9648 9.42871C92.1081 9.42871 92.2464 9.41895 92.3799 9.39941C92.5133 9.37663 92.6191 9.35384 92.6973 9.33105V9.95117C92.6094 9.99349 92.4792 10.0277 92.3066 10.0537C92.1374 10.083 91.9844 10.0977 91.8477 10.0977C90.8125 10.0977 90.2949 9.55241 90.2949 8.46191V5.27832H89.5283V4.8877L90.2949 4.55078L90.6367 3.4082H91.1055V4.64844H92.6582V5.27832H91.1055V8.42773C91.1055 8.75 91.182 8.9974 91.335 9.16992C91.488 9.34245 91.6979 9.42871 91.9648 9.42871ZM95.5 9.42871C95.6432 9.42871 95.7816 9.41895 95.915 9.39941C96.0485 9.37663 96.1543 9.35384 96.2324 9.33105V9.95117C96.1445 9.99349 96.0143 10.0277 95.8418 10.0537C95.6725 10.083 95.5195 10.0977 95.3828 10.0977C94.3477 10.0977 93.8301 9.55241 93.8301 8.46191V5.27832H93.0635V4.8877L93.8301 4.55078L94.1719 3.4082H94.6406V4.64844H96.1934V5.27832H94.6406V8.42773C94.6406 8.75 94.7171 8.9974 94.8701 9.16992C95.0231 9.34245 95.2331 9.42871 95.5 9.42871ZM101.926 7.31934C101.926 8.19173 101.706 8.8737 101.267 9.36523C100.827 9.85352 100.22 10.0977 99.4453 10.0977C98.9668 10.0977 98.542 9.98535 98.1709 9.76074C97.7998 9.53613 97.5133 9.21387 97.3115 8.79395C97.1097 8.37402 97.0088 7.88249 97.0088 7.31934C97.0088 6.44694 97.2269 5.76823 97.6631 5.2832C98.0993 4.79492 98.7048 4.55078 99.4795 4.55078C100.228 4.55078 100.822 4.7998 101.262 5.29785C101.704 5.7959 101.926 6.46973 101.926 7.31934ZM97.8486 7.31934C97.8486 8.00293 97.9854 8.52376 98.2588 8.88184C98.5322 9.23991 98.9342 9.41895 99.4648 9.41895C99.9954 9.41895 100.397 9.24154 100.671 8.88672C100.948 8.52865 101.086 8.00618 101.086 7.31934C101.086 6.639 100.948 6.12305 100.671 5.77148C100.397 5.41667 99.9922 5.23926 99.4551 5.23926C98.9245 5.23926 98.5241 5.41341 98.2539 5.76172C97.9837 6.11003 97.8486 6.62923 97.8486 7.31934ZM110.173 10V6.51855C110.173 6.09212 110.082 5.77311 109.899 5.56152C109.717 5.34668 109.434 5.23926 109.05 5.23926C108.545 5.23926 108.173 5.38411 107.932 5.67383C107.691 5.96354 107.57 6.40951 107.57 7.01172V10H106.76V6.51855C106.76 6.09212 106.669 5.77311 106.486 5.56152C106.304 5.34668 106.019 5.23926 105.632 5.23926C105.124 5.23926 104.751 5.39225 104.514 5.69824C104.279 6.00098 104.162 6.49902 104.162 7.19238V10H103.352V4.64844H104.011L104.143 5.38086H104.182C104.335 5.12044 104.549 4.91699 104.826 4.77051C105.106 4.62402 105.419 4.55078 105.764 4.55078C106.6 4.55078 107.147 4.85352 107.404 5.45898H107.443C107.603 5.17904 107.834 4.95768 108.137 4.79492C108.439 4.63216 108.785 4.55078 109.172 4.55078C109.777 4.55078 110.23 4.70703 110.529 5.01953C110.832 5.32878 110.983 5.8252 110.983 6.50879V10H110.173Z" fill="#333333"/>
<path d="M75.2666 106H74.29L71.6875 102.538L70.9404 103.202V106H70.1104V98.8613H70.9404V102.401L74.1777 98.8613H75.1592L72.2881 101.962L75.2666 106ZM80.75 103.319C80.75 104.192 80.5303 104.874 80.0908 105.365C79.6514 105.854 79.0443 106.098 78.2695 106.098C77.791 106.098 77.3662 105.985 76.9951 105.761C76.624 105.536 76.3376 105.214 76.1357 104.794C75.9339 104.374 75.833 103.882 75.833 103.319C75.833 102.447 76.0511 101.768 76.4873 101.283C76.9235 100.795 77.529 100.551 78.3037 100.551C79.0524 100.551 79.6465 100.8 80.0859 101.298C80.5286 101.796 80.75 102.47 80.75 103.319ZM76.6729 103.319C76.6729 104.003 76.8096 104.524 77.083 104.882C77.3564 105.24 77.7585 105.419 78.2891 105.419C78.8197 105.419 79.2217 105.242 79.4951 104.887C79.7718 104.529 79.9102 104.006 79.9102 103.319C79.9102 102.639 79.7718 102.123 79.4951 101.771C79.2217 101.417 78.8164 101.239 78.2793 101.239C77.7487 101.239 77.3483 101.413 77.0781 101.762C76.8079 102.11 76.6729 102.629 76.6729 103.319ZM82.9863 106H82.1758V98.4023H82.9863V106ZM85.5156 106H84.7051V98.4023H85.5156V106ZM90.5254 106L90.3643 105.238H90.3252C90.0583 105.574 89.7913 105.801 89.5244 105.922C89.2607 106.039 88.9303 106.098 88.5332 106.098C88.0026 106.098 87.5859 105.961 87.2832 105.688C86.9837 105.414 86.834 105.025 86.834 104.521C86.834 103.44 87.6982 102.873 89.4268 102.821L90.335 102.792V102.46C90.335 102.04 90.2438 101.731 90.0615 101.532C89.8825 101.33 89.5944 101.229 89.1973 101.229C88.7513 101.229 88.2467 101.366 87.6836 101.64L87.4346 101.02C87.6982 100.876 87.9863 100.764 88.2988 100.683C88.6146 100.601 88.9303 100.561 89.2461 100.561C89.8841 100.561 90.3561 100.702 90.6621 100.985C90.9714 101.269 91.126 101.723 91.126 102.348V106H90.5254ZM88.6943 105.429C89.1989 105.429 89.5944 105.29 89.8809 105.014C90.1706 104.737 90.3154 104.35 90.3154 103.852V103.368L89.5049 103.402C88.8604 103.425 88.3949 103.526 88.1084 103.705C87.8252 103.881 87.6836 104.156 87.6836 104.53C87.6836 104.823 87.7715 105.046 87.9473 105.199C88.1263 105.352 88.3753 105.429 88.6943 105.429ZM95.291 106.098C94.9427 106.098 94.6237 106.034 94.334 105.907C94.0475 105.777 93.8066 105.578 93.6113 105.312H93.5527C93.5918 105.624 93.6113 105.92 93.6113 106.2V108.402H92.8008V100.648H93.46L93.5723 101.381H93.6113C93.8197 101.088 94.0622 100.876 94.3389 100.746C94.6156 100.616 94.9329 100.551 95.291 100.551C96.0007 100.551 96.5475 100.793 96.9316 101.278C97.319 101.763 97.5127 102.444 97.5127 103.319C97.5127 104.198 97.3158 104.882 96.9219 105.37C96.5312 105.855 95.9876 106.098 95.291 106.098ZM95.1738 101.239C94.627 101.239 94.2314 101.391 93.9873 101.693C93.7432 101.996 93.6178 102.478 93.6113 103.139V103.319C93.6113 104.071 93.7367 104.61 93.9873 104.936C94.238 105.258 94.64 105.419 95.1934 105.419C95.6556 105.419 96.0169 105.232 96.2773 104.857C96.541 104.483 96.6729 103.967 96.6729 103.31C96.6729 102.642 96.541 102.131 96.2773 101.776C96.0169 101.418 95.6491 101.239 95.1738 101.239ZM101.424 106.098C101.076 106.098 100.757 106.034 100.467 105.907C100.18 105.777 99.9395 105.578 99.7441 105.312H99.6855C99.7246 105.624 99.7441 105.92 99.7441 106.2V108.402H98.9336V100.648H99.5928L99.7051 101.381H99.7441C99.9525 101.088 100.195 100.876 100.472 100.746C100.748 100.616 101.066 100.551 101.424 100.551C102.133 100.551 102.68 100.793 103.064 101.278C103.452 101.763 103.646 102.444 103.646 103.319C103.646 104.198 103.449 104.882 103.055 105.37C102.664 105.855 102.12 106.098 101.424 106.098ZM101.307 101.239C100.76 101.239 100.364 101.391 100.12 101.693C99.876 101.996 99.7507 102.478 99.7441 103.139V103.319C99.7441 104.071 99.8695 104.61 100.12 104.936C100.371 105.258 100.773 105.419 101.326 105.419C101.788 105.419 102.15 105.232 102.41 104.857C102.674 104.483 102.806 103.967 102.806 103.31C102.806 102.642 102.674 102.131 102.41 101.776C102.15 101.418 101.782 101.239 101.307 101.239ZM108.357 106L108.196 105.238H108.157C107.89 105.574 107.623 105.801 107.356 105.922C107.093 106.039 106.762 106.098 106.365 106.098C105.835 106.098 105.418 105.961 105.115 105.688C104.816 105.414 104.666 105.025 104.666 104.521C104.666 103.44 105.53 102.873 107.259 102.821L108.167 102.792V102.46C108.167 102.04 108.076 101.731 107.894 101.532C107.715 101.33 107.426 101.229 107.029 101.229C106.583 101.229 106.079 101.366 105.516 101.64L105.267 101.02C105.53 100.876 105.818 100.764 106.131 100.683C106.447 100.601 106.762 100.561 107.078 100.561C107.716 100.561 108.188 100.702 108.494 100.985C108.803 101.269 108.958 101.723 108.958 102.348V106H108.357ZM106.526 105.429C107.031 105.429 107.426 105.29 107.713 105.014C108.003 104.737 108.147 104.35 108.147 103.852V103.368L107.337 103.402C106.692 103.425 106.227 103.526 105.94 103.705C105.657 103.881 105.516 104.156 105.516 104.53C105.516 104.823 105.604 105.046 105.779 105.199C105.958 105.352 106.207 105.429 106.526 105.429ZM111.443 106H110.633V98.4023H111.443V106ZM113.973 106H113.162V98.4023H113.973V106ZM114.842 100.648H115.711L116.883 103.7C117.14 104.397 117.299 104.9 117.361 105.209H117.4C117.443 105.043 117.531 104.76 117.664 104.359C117.801 103.956 118.243 102.719 118.992 100.648H119.861L117.562 106.742C117.334 107.344 117.067 107.771 116.761 108.021C116.458 108.275 116.085 108.402 115.643 108.402C115.395 108.402 115.151 108.375 114.91 108.319V107.67C115.089 107.709 115.289 107.729 115.511 107.729C116.067 107.729 116.465 107.416 116.702 106.791L117 106.029L114.842 100.648Z" fill="#333333"/>
<circle cx="93" cy="84" r="6" fill="#09B438"/>
<path d="M93.2005 80C91.8922 80 90.8203 81.0688 90.8203 82.3733C90.8203 82.8788 90.9817 83.3485 91.255 83.7347L92.91 86.5957C93.1418 86.8985 93.2959 86.841 93.4886 86.5797L95.314 83.4732C95.3509 83.4065 95.3798 83.3355 95.405 83.2629C95.5177 82.9877 95.5804 82.6875 95.5804 82.3733C95.5804 81.0688 94.5087 80 93.2005 80ZM93.2005 81.1121C93.9049 81.1121 94.4651 81.6709 94.4651 82.3733C94.4651 83.0758 93.9049 83.6344 93.2005 83.6344C92.496 83.6344 91.9356 83.0758 91.9356 82.3733C91.9356 81.6709 92.496 81.1121 93.2005 81.1121Z" fill="white"/>
<path d="M94.7148 83.9141L94.7109 83.9242C94.7122 83.9211 94.7131 83.918 94.7144 83.915C94.7145 83.9146 94.7147 83.9144 94.7148 83.9141Z" fill="white"/>
<path d="M91.9205 85.5234C90.7904 85.6832 90 86.0652 90 86.6275C90 87.3849 91.3207 87.9989 93.2 87.9989C95.0794 87.9989 96.4001 87.3849 96.4001 86.6275C96.4001 86.0652 95.6098 85.6832 94.4798 85.5234C94.4276 85.6123 94.3753 85.7011 94.3232 85.79C95.1749 85.9082 95.7601 86.1565 95.7601 86.4447C95.7601 86.8487 94.6139 87.1761 93.2 87.1761C91.7862 87.1761 90.64 86.8487 90.64 86.4447C90.6399 86.1575 91.2213 85.9094 92.0757 85.7908C92.024 85.7016 91.9721 85.6126 91.9205 85.5234Z" fill="white"/>
</svg>
