<svg width="40" height="40" viewBox="0 0 40 40" fill="none" xmlns="http://www.w3.org/2000/svg">
<path d="M36.6667 0H3.33333C2.44928 0 1.60143 0.351189 0.976311 0.976311C0.351189 1.60143 0 2.44928 0 3.33333V36.6667C0 37.5507 0.351189 38.3986 0.976311 39.0237C1.60143 39.6488 2.44928 40 3.33333 40H36.6667C37.5507 40 38.3986 39.6488 39.0237 39.0237C39.6488 38.3986 40 37.5507 40 36.6667V3.33333C40 2.44928 39.6488 1.60143 39.0237 0.976311C38.3986 0.351189 37.5507 0 36.6667 0ZM36.6667 36.6667H3.33333V3.33333H36.6667V36.6667ZM10 20C10 19.558 10.1756 19.134 10.4882 18.8215C10.8007 18.5089 11.2246 18.3333 11.6667 18.3333H24.3104L20.4875 14.5125C20.1748 14.1998 19.9991 13.7756 19.9991 13.3333C19.9991 12.8911 20.1748 12.4669 20.4875 12.1542C20.8002 11.8414 21.2244 11.6657 21.6667 11.6657C22.1089 11.6657 22.5331 11.8414 22.8458 12.1542L29.5125 18.8208C29.6675 18.9756 29.7904 19.1594 29.8743 19.3618C29.9581 19.5641 30.0013 19.781 30.0013 20C30.0013 20.219 29.9581 20.4359 29.8743 20.6382C29.7904 20.8406 29.6675 21.0244 29.5125 21.1792L22.8458 27.8458C22.5331 28.1586 22.1089 28.3343 21.6667 28.3343C21.2244 28.3343 20.8002 28.1586 20.4875 27.8458C20.1748 27.5331 19.9991 27.1089 19.9991 26.6667C19.9991 26.2244 20.1748 25.8002 20.4875 25.4875L24.3104 21.6667H11.6667C11.2246 21.6667 10.8007 21.4911 10.4882 21.1785C10.1756 20.866 10 20.442 10 20Z" fill="#999999"/>
</svg>
