<svg width="21" height="24" viewBox="0 0 21 24" fill="none" xmlns="http://www.w3.org/2000/svg">
<path d="M10.1053 0C5.05263 0 0 0.631579 0 5.05263V17.0526C0 18.2252 0.465788 19.3497 1.2949 20.1788C2.124 21.0079 3.24852 21.4737 4.42105 21.4737L2.52632 23.3684V24H5.34316L7.86947 21.4737H12.6316L15.1579 24H17.6842V23.3684L15.7895 21.4737C16.962 21.4737 18.0865 21.0079 18.9156 20.1788C19.7447 19.3497 20.2105 18.2252 20.2105 17.0526V5.05263C20.2105 0.631579 15.6884 0 10.1053 0ZM4.42105 18.9474C3.91854 18.9474 3.4366 18.7477 3.08127 18.3924C2.72594 18.0371 2.52632 17.5551 2.52632 17.0526C2.52632 16.5501 2.72594 16.0682 3.08127 15.7128C3.4366 15.3575 3.91854 15.1579 4.42105 15.1579C4.92357 15.1579 5.4055 15.3575 5.76083 15.7128C6.11617 16.0682 6.31579 16.5501 6.31579 17.0526C6.31579 17.5551 6.11617 18.0371 5.76083 18.3924C5.4055 18.7477 4.92357 18.9474 4.42105 18.9474ZM8.8421 10.1053H2.52632V5.05263H8.8421V10.1053ZM11.3684 10.1053V5.05263H17.6842V10.1053H11.3684ZM15.7895 18.9474C15.287 18.9474 14.805 18.7477 14.4497 18.3924C14.0944 18.0371 13.8947 17.5551 13.8947 17.0526C13.8947 16.5501 14.0944 16.0682 14.4497 15.7128C14.805 15.3575 15.287 15.1579 15.7895 15.1579C16.292 15.1579 16.7739 15.3575 17.1293 15.7128C17.4846 16.0682 17.6842 16.5501 17.6842 17.0526C17.6842 17.5551 17.4846 18.0371 17.1293 18.3924C16.7739 18.7477 16.292 18.9474 15.7895 18.9474Z" fill="#333333"/>
</svg>
